<?xml version="1.0" standalone="no"?>
<!DOCTYPE svg PUBLIC "-//W3C//DTD SVG 20010904//EN"
 "http://www.w3.org/TR/2001/REC-SVG-20010904/DTD/svg10.dtd">
<svg version="1.0" xmlns="http://www.w3.org/2000/svg"
 width="1154.000000pt" height="1154.000000pt" viewBox="0 0 1154.000000 1154.000000"
 preserveAspectRatio="xMidYMid meet">

<g transform="translate(0.000000,1154.000000) scale(0.100000,-0.100000)"
fill="#000000" stroke="none">
<path d="M3488 7703 c-1187 -592 -2158 -1080 -2158 -1084 0 -5 974 -494 2166
-1088 l2165 -1080 2002 1000 c2456 1228 2327 1163 2327 1169 0 7 -4309 2155
-4329 2157 -9 1 -987 -482 -2173 -1074z m3976 -183 c988 -492 1795 -897 1794
-901 -3 -8 -3584 -1799 -3597 -1799 -16 0 -3601 1790 -3601 1798 0 9 3591
1803 3602 1799 3 -1 814 -405 1802 -897z"/>
<path d="M1698 5325 c-40 -79 -70 -146 -68 -148 3 -3 367 -185 810 -405 443
-220 1326 -659 1964 -976 637 -318 1159 -576 1161 -574 1 2 10 19 20 38 l18
35 15 -33 c9 -17 19 -32 23 -32 4 0 195 93 425 206 231 114 523 257 649 319
127 62 451 222 720 355 270 133 562 277 650 320 88 43 421 207 740 364 319
158 610 301 647 319 37 18 68 37 68 42 0 9 -126 275 -134 283 -4 4 -356 -168
-1591 -778 -225 -111 -495 -244 -600 -295 -104 -51 -464 -228 -800 -394 -335
-166 -657 -324 -716 -352 l-106 -51 -169 83 c-93 45 -716 355 -1384 688 -668
333 -1452 724 -1743 868 l-527 263 -72 -145z"/>
<path d="M1695 3990 c-38 -76 -67 -141 -65 -144 13 -12 3918 -1956 3930 -1956
4 0 12 12 19 27 l13 28 15 -30 c9 -17 17 -31 18 -33 1 -1 139 66 306 149 167
83 367 182 444 219 77 37 370 181 650 320 281 139 618 305 750 370 132 65 404
199 605 298 201 99 540 266 754 371 215 105 392 194 395 197 8 8 -132 284
-145 284 -6 0 -240 -113 -520 -251 -280 -138 -612 -302 -739 -364 -126 -62
-747 -367 -1378 -678 l-1149 -566 -1206 600 c-1992 992 -2611 1299 -2619 1299
-5 0 -40 -63 -78 -140z"/>
</g>
</svg>
