<svg width="45" height="32" viewBox="0 0 45 32" fill="none" xmlns="http://www.w3.org/2000/svg">
<rect x="0.5" y="1" width="44" height="30.5" rx="4.5" fill="white"/>
<path d="M31 15.1016C31.1602 14.6836 31.25 14.2266 31.25 13.75C31.25 11.6797 29.5703 10 27.5 10C26.7305 10 26.0117 10.2344 25.418 10.6328C24.3359 8.75781 22.3164 7.5 20 7.5C16.5469 7.5 13.75 10.2969 13.75 13.75C13.75 13.8555 13.7539 13.9609 13.7578 14.0664C11.5703 14.8359 10 16.9219 10 19.375C10 22.4805 12.5195 25 15.625 25H30C32.7617 25 35 22.7617 35 20C35 17.582 33.2812 15.5625 31 15.1016ZM25.8086 18.5664L21.6914 22.6836C21.4492 22.9258 21.0508 22.9258 20.8086 22.6836L16.6914 18.5664C16.2969 18.1719 16.5781 17.5 17.1328 17.5H19.6875V13.125C19.6875 12.7812 19.9688 12.5 20.3125 12.5H22.1875C22.5312 12.5 22.8125 12.7812 22.8125 13.125V17.5H25.3672C25.9219 17.5 26.2031 18.1719 25.8086 18.5664Z" fill="#B9B9B9"/>
<rect x="0.5" y="1" width="44" height="30.5" rx="4.5" stroke="#D9D9D9"/>
</svg>
