<svg width="45" height="31" viewBox="0 0 45 31" fill="none" xmlns="http://www.w3.org/2000/svg">
<rect x="0.5" y="0.75" width="44" height="29" rx="4.5" fill="white"/>
<path d="M19.0743 20.9628C19.0743 22.226 18.0503 23.25 16.7871 23.25C15.524 23.25 14.5 22.226 14.5 20.9628C14.5 19.6996 15.524 18.6756 16.7872 18.6756C18.0503 18.6756 19.0743 19.6997 19.0743 20.9628ZM25.3479 22.6503C25.0495 17.1289 20.627 12.7008 15.0997 12.4021C14.7734 12.3845 14.5 12.6466 14.5 12.9733V14.6901C14.5 14.9906 14.7318 15.2426 15.0317 15.2621C19.0257 15.5223 22.2271 18.7158 22.4878 22.7183C22.5073 23.0181 22.7594 23.2499 23.0599 23.2499H24.7766C25.1034 23.25 25.3655 22.9765 25.3479 22.6503ZM30.4996 22.6606C30.1998 14.3099 23.4809 7.55162 15.0894 7.25037C14.7669 7.2388 14.5 7.49933 14.5 7.82201V9.53872C14.5 9.84676 14.7441 10.0975 15.0519 10.1101C21.8797 10.3901 27.36 15.8714 27.6399 22.6981C27.6525 23.0059 27.9032 23.25 28.2113 23.25H29.928C30.2506 23.25 30.5112 22.9831 30.4996 22.6606Z" fill="#12AD50"/>
<rect x="0.5" y="0.75" width="44" height="29" rx="4.5" stroke="#D9D9D9"/>
</svg>
