<svg width="18" height="18" viewBox="0 0 18 18" fill="none" xmlns="http://www.w3.org/2000/svg">
<path d="M12.8799 11.6574L12.564 12.0613H13.0768H13.6498C13.8094 12.0613 13.96 12.1235 14.0707 12.2342L17.5745 15.738C17.5746 15.7381 17.5748 15.7383 17.5749 15.7385C17.8048 15.9714 17.8047 16.3478 17.5719 16.5806L16.5771 17.5754L16.5761 17.5763C16.3476 17.8074 15.9723 17.8087 15.7389 17.5754L12.2342 14.0707C12.1235 13.96 12.0613 13.8094 12.0613 13.6498V13.0768V12.564L11.6574 12.8799C10.459 13.8169 8.95204 14.3736 7.31179 14.3736C3.4108 14.3736 0.25 11.2128 0.25 7.31179C0.25 3.4108 3.4108 0.25 7.31179 0.25C11.2128 0.25 14.3736 3.4108 14.3736 7.31179C14.3736 8.95204 13.8169 10.459 12.8799 11.6574ZM2.56223 7.31179C2.56223 9.9388 4.68854 12.0613 7.31179 12.0613C9.9388 12.0613 12.0613 9.93503 12.0613 7.31179C12.0613 4.68477 9.93503 2.56223 7.31179 2.56223C4.68477 2.56223 2.56223 4.68854 2.56223 7.31179Z" fill="#D9D9D9" stroke="white" stroke-width="0.5"/>
</svg>
