<svg width="18" height="18" viewBox="0 0 18 18" fill="none" xmlns="http://www.w3.org/2000/svg">
<path d="M0.243921 15.5622L3.74866 12.0574C3.90685 11.8992 4.12128 11.8113 4.34626 11.8113H4.91925C3.94903 10.5705 3.37252 9.00967 3.37252 7.31179C3.37252 3.27273 6.64525 0 10.6843 0C14.7234 0 17.9961 3.27273 17.9961 7.31179C17.9961 11.3508 14.7234 14.6236 10.6843 14.6236C8.98643 14.6236 7.42564 14.0471 6.18475 13.0768V13.6498C6.18475 13.8748 6.09687 14.0892 5.93868 14.2474L2.43394 17.7522C2.10351 18.0826 1.56918 18.0826 1.24226 17.7522L0.247438 16.7573C-0.0829983 16.4269 -0.0829983 15.8926 0.243921 15.5622ZM10.6843 11.8113C13.1696 11.8113 15.1839 9.80061 15.1839 7.31179C15.1839 4.82648 13.1731 2.81223 10.6843 2.81223C8.199 2.81223 6.18475 4.82297 6.18475 7.31179C6.18475 9.79709 8.19549 11.8113 10.6843 11.8113Z" fill="#CFCFCF"/>
</svg>
