<svg width="8" height="8" viewBox="0 0 8 8" fill="none" xmlns="http://www.w3.org/2000/svg">
<path d="M8 4C8 6.20963 6.20898 8 4 8C1.79102 8 0 6.20963 0 4C0 1.79166 1.79102 0 4 0C6.20898 0 8 1.79166 8 4ZM4.10734 1.32258C3.22835 1.32258 2.66774 1.69285 2.22752 2.35094C2.17048 2.43619 2.18956 2.55118 2.27131 2.61316L2.83097 3.03752C2.91492 3.10118 3.03453 3.08603 3.09976 3.00329C3.38789 2.63784 3.58545 2.42592 4.024 2.42592C4.3535 2.42592 4.76106 2.63798 4.76106 2.9575C4.76106 3.19905 4.56166 3.3231 4.23632 3.5055C3.8569 3.71819 3.35484 3.98292 3.35484 4.64516V4.70968C3.35484 4.81656 3.4415 4.90323 3.54839 4.90323H4.45161C4.5585 4.90323 4.64516 4.81656 4.64516 4.70968V4.68818C4.64516 4.22911 5.98687 4.21 5.98687 2.96774C5.98687 2.03223 5.01647 1.32258 4.10734 1.32258ZM4 5.32258C3.59089 5.32258 3.25806 5.6554 3.25806 6.06452C3.25806 6.47361 3.59089 6.80645 4 6.80645C4.40911 6.80645 4.74194 6.47361 4.74194 6.06452C4.74194 5.6554 4.40911 5.32258 4 5.32258Z" fill="#959595"/>
</svg>
