<svg width="25" height="22" viewBox="0 0 25 22" fill="none" xmlns="http://www.w3.org/2000/svg">
<path d="M23.4375 6.25H1.5625C0.699561 6.25 0 5.55044 0 4.6875V1.5625C0 0.699561 0.699561 0 1.5625 0H23.4375C24.3004 0 25 0.699561 25 1.5625V4.6875C25 5.55044 24.3004 6.25 23.4375 6.25ZM21.0938 1.95312C20.4465 1.95312 19.9219 2.47778 19.9219 3.125C19.9219 3.77222 20.4465 4.29688 21.0938 4.29688C21.741 4.29688 22.2656 3.77222 22.2656 3.125C22.2656 2.47778 21.741 1.95312 21.0938 1.95312ZM17.9688 1.95312C17.3215 1.95312 16.7969 2.47778 16.7969 3.125C16.7969 3.77222 17.3215 4.29688 17.9688 4.29688C18.616 4.29688 19.1406 3.77222 19.1406 3.125C19.1406 2.47778 18.616 1.95312 17.9688 1.95312ZM23.4375 14.0625H1.5625C0.699561 14.0625 0 13.3629 0 12.5V9.375C0 8.51206 0.699561 7.8125 1.5625 7.8125H23.4375C24.3004 7.8125 25 8.51206 25 9.375V12.5C25 13.3629 24.3004 14.0625 23.4375 14.0625ZM21.0938 9.76562C20.4465 9.76562 19.9219 10.2903 19.9219 10.9375C19.9219 11.5847 20.4465 12.1094 21.0938 12.1094C21.741 12.1094 22.2656 11.5847 22.2656 10.9375C22.2656 10.2903 21.741 9.76562 21.0938 9.76562ZM17.9688 9.76562C17.3215 9.76562 16.7969 10.2903 16.7969 10.9375C16.7969 11.5847 17.3215 12.1094 17.9688 12.1094C18.616 12.1094 19.1406 11.5847 19.1406 10.9375C19.1406 10.2903 18.616 9.76562 17.9688 9.76562ZM23.4375 21.875H1.5625C0.699561 21.875 0 21.1754 0 20.3125V17.1875C0 16.3246 0.699561 15.625 1.5625 15.625H23.4375C24.3004 15.625 25 16.3246 25 17.1875V20.3125C25 21.1754 24.3004 21.875 23.4375 21.875ZM21.0938 17.5781C20.4465 17.5781 19.9219 18.1028 19.9219 18.75C19.9219 19.3972 20.4465 19.9219 21.0938 19.9219C21.741 19.9219 22.2656 19.3972 22.2656 18.75C22.2656 18.1028 21.741 17.5781 21.0938 17.5781ZM17.9688 17.5781C17.3215 17.5781 16.7969 18.1028 16.7969 18.75C16.7969 19.3972 17.3215 19.9219 17.9688 19.9219C18.616 19.9219 19.1406 19.3972 19.1406 18.75C19.1406 18.1028 18.616 17.5781 17.9688 17.5781Z" fill="#B3B3B3"/>
</svg>
