<svg width="24" height="23" viewBox="0 0 24 23" fill="none" xmlns="http://www.w3.org/2000/svg">
<path d="M15.6559 8.87477H8.21404C6.94118 8.87477 5.91406 7.85215 5.91406 6.58485C5.91406 5.31755 6.94118 4.29492 8.21404 4.29492H15.6559C16.9288 4.29492 17.9559 5.31755 17.9559 6.58485C17.9559 7.84587 16.9288 8.87477 15.6559 8.87477Z" stroke="black" stroke-width="0.5" stroke-miterlimit="10"/>
<path d="M12.9609 6.58398H16.3132" stroke="black" stroke-width="0.5" stroke-miterlimit="10"/>
<path d="M7.6228 7.0811C7.89773 7.0811 8.12061 6.8592 8.12061 6.58547C8.12061 6.31174 7.89773 6.08984 7.6228 6.08984C7.34787 6.08984 7.125 6.31174 7.125 6.58547C7.125 6.8592 7.34787 7.0811 7.6228 7.0811Z" fill="black"/>
<path d="M9.3728 7.0811C9.64773 7.0811 9.87061 6.8592 9.87061 6.58547C9.87061 6.31174 9.64773 6.08984 9.3728 6.08984C9.09787 6.08984 8.875 6.31174 8.875 6.58547C8.875 6.8592 9.09787 7.0811 9.3728 7.0811Z" fill="black"/>
<path d="M11.0291 7.0811C11.304 7.0811 11.5269 6.8592 11.5269 6.58547C11.5269 6.31174 11.304 6.08984 11.0291 6.08984C10.7541 6.08984 10.5312 6.31174 10.5312 6.58547C10.5312 6.8592 10.7541 7.0811 11.0291 7.0811Z" fill="black"/>
<path d="M15.6559 13.4548H8.21404C6.94118 13.4548 5.91406 12.4322 5.91406 11.1649C5.91406 9.89762 6.94118 8.875 8.21404 8.875H15.6559C16.9288 8.875 17.9559 9.89762 17.9559 11.1649C17.9559 12.426 16.9288 13.4548 15.6559 13.4548Z" stroke="black" stroke-width="0.5" stroke-miterlimit="10"/>
<path d="M12.9609 11.1641H16.3132" stroke="black" stroke-width="0.5" stroke-miterlimit="10"/>
<path d="M7.6228 11.6612C7.89773 11.6612 8.12061 11.4393 8.12061 11.1655C8.12061 10.8918 7.89773 10.6699 7.6228 10.6699C7.34787 10.6699 7.125 10.8918 7.125 11.1655C7.125 11.4393 7.34787 11.6612 7.6228 11.6612Z" fill="black"/>
<path d="M9.3728 11.6612C9.64773 11.6612 9.87061 11.4393 9.87061 11.1655C9.87061 10.8918 9.64773 10.6699 9.3728 10.6699C9.09787 10.6699 8.875 10.8918 8.875 11.1655C8.875 11.4393 9.09787 11.6612 9.3728 11.6612Z" fill="black"/>
<path d="M11.0291 11.6612C11.304 11.6612 11.5269 11.4393 11.5269 11.1655C11.5269 10.8918 11.304 10.6699 11.0291 10.6699C10.7541 10.6699 10.5312 10.8918 10.5312 11.1655C10.5312 11.4393 10.7541 11.6612 11.0291 11.6612Z" fill="black"/>
<path d="M15.6559 18.0349H8.21404C6.94118 18.0349 5.91406 17.0123 5.91406 15.745C5.91406 14.4777 6.94118 13.4551 8.21404 13.4551H15.6559C16.9288 13.4551 17.9559 14.4777 17.9559 15.745C17.9559 17.0123 16.9288 18.0349 15.6559 18.0349Z" stroke="black" stroke-width="0.5" stroke-miterlimit="10"/>
<path d="M12.9609 15.7441H16.3132" stroke="black" stroke-width="0.5" stroke-miterlimit="10"/>
<path d="M7.6228 16.2393C7.89773 16.2393 8.12061 16.0174 8.12061 15.7437C8.12061 15.4699 7.89773 15.248 7.6228 15.248C7.34787 15.248 7.125 15.4699 7.125 15.7437C7.125 16.0174 7.34787 16.2393 7.6228 16.2393Z" fill="black"/>
<path d="M9.3728 16.2393C9.64773 16.2393 9.87061 16.0174 9.87061 15.7437C9.87061 15.4699 9.64773 15.248 9.3728 15.248C9.09787 15.248 8.875 15.4699 8.875 15.7437C8.875 16.0174 9.09787 16.2393 9.3728 16.2393Z" fill="black"/>
<path d="M11.0291 16.2393C11.304 16.2393 11.5269 16.0174 11.5269 15.7437C11.5269 15.4699 11.304 15.248 11.0291 15.248C10.7541 15.248 10.5312 15.4699 10.5312 15.7437C10.5312 16.0174 10.7541 16.2393 11.0291 16.2393Z" fill="black"/>
<path d="M11.9373 21.8355C17.857 21.8355 22.6558 17.0577 22.6558 11.1639C22.6558 5.27006 17.857 0.492188 11.9373 0.492188C6.0176 0.492188 1.21875 5.27006 1.21875 11.1639C1.21875 17.0577 6.0176 21.8355 11.9373 21.8355Z" stroke="#7D7E81" stroke-miterlimit="10" stroke-linecap="round" stroke-linejoin="round"/>
</svg>
