<svg width="27" height="29" viewBox="0 0 27 29" fill="none" xmlns="http://www.w3.org/2000/svg">
<path d="M4.85875 16.2694C5.90257 16.2694 6.74875 15.3749 6.74875 14.2714C6.74875 13.168 5.90257 12.2734 4.85875 12.2734C3.81493 12.2734 2.96875 13.168 2.96875 14.2714C2.96875 15.3749 3.81493 16.2694 4.85875 16.2694Z" stroke="#B3B3B3"/>
<path d="M15.6594 18.5531C17.8961 18.5531 19.7094 16.6362 19.7094 14.2717C19.7094 11.9071 17.8961 9.99023 15.6594 9.99023C13.4226 9.99023 11.6094 11.9071 11.6094 14.2717C11.6094 16.6362 13.4226 18.5531 15.6594 18.5531Z" stroke="#B3B3B3"/>
<path d="M8.10094 7.13663C9.14476 7.13663 9.99094 6.24209 9.99094 5.13863C9.99094 4.03516 9.14476 3.14062 8.10094 3.14062C7.05712 3.14062 6.21094 4.03516 6.21094 5.13863C6.21094 6.24209 7.05712 7.13663 8.10094 7.13663Z" stroke="#B3B3B3"/>
<path d="M22.14 7.13663C23.1838 7.13663 24.03 6.24209 24.03 5.13863C24.03 4.03516 23.1838 3.14062 22.14 3.14062C21.0962 3.14062 20.25 4.03516 20.25 5.13863C20.25 6.24209 21.0962 7.13663 22.14 7.13663Z" stroke="#B3B3B3"/>
<path d="M21.2416 25.4023C22.2854 25.4023 23.1316 24.5077 23.1316 23.4043C23.1316 22.3008 22.2854 21.4062 21.2416 21.4062C20.1977 21.4062 19.3516 22.3008 19.3516 23.4043C19.3516 24.5077 20.1977 25.4023 21.2416 25.4023Z" stroke="#B3B3B3"/>
<path d="M9.35938 6.46875L13.4994 10.8453" stroke="#B3B3B3"/>
<path d="M17.8203 10.8464L21.0603 6.66016" stroke="#B3B3B3"/>
<path d="M6.65625 14.2715H11.6962" stroke="#B3B3B3"/>
<path d="M17.8203 17.6973L20.1603 21.6933" stroke="#B3B3B3"/>
</svg>
