<?xml version="1.0" standalone="no"?>
<!DOCTYPE svg PUBLIC "-//W3C//DTD SVG 20010904//EN"
 "http://www.w3.org/TR/2001/REC-SVG-20010904/DTD/svg10.dtd">
<svg version="1.0" xmlns="http://www.w3.org/2000/svg"
 width="2560.000000pt" height="1533.000000pt" viewBox="0 0 2560.000000 1533.000000"
 preserveAspectRatio="xMidYMid meet">

<g transform="translate(0.000000,1533.000000) scale(0.100000,-0.100000)"
fill="#000000" stroke="none">
<path d="M21485 15230 c-1027 -53 -1853 -495 -2282 -1220 -276 -467 -331
-1069 -147 -1619 14 -42 58 -143 99 -226 115 -234 242 -411 416 -580 167 -162
342 -284 578 -404 246 -125 342 -159 1151 -411 702 -218 874 -276 1066 -363
342 -154 535 -343 613 -599 43 -144 46 -364 5 -521 -99 -384 -446 -654 -981
-763 -376 -76 -908 -77 -1403 -3 -436 66 -732 153 -1275 377 -183 75 -272 89
-351 53 -23 -10 -50 -32 -61 -47 -45 -64 -48 -93 -48 -414 l1 -305 27 -82 c23
-68 38 -94 83 -142 132 -143 430 -285 854 -406 984 -282 1936 -309 2737 -80
699 201 1178 533 1516 1050 207 317 311 663 324 1080 9 273 -20 486 -96 715
-179 535 -546 914 -1149 1184 -210 95 -254 110 -1187 406 -706 224 -891 294
-1107 416 -363 205 -519 440 -520 784 -1 295 84 500 275 668 261 227 712 334
1347 319 570 -14 991 -104 1494 -318 215 -92 316 -119 382 -100 56 15 88 42
116 99 22 45 23 57 26 329 4 311 -2 365 -48 459 -38 78 -137 173 -251 241
-259 156 -751 299 -1314 382 -270 40 -608 55 -890 41z"/>
<path d="M4080 15213 c-384 -20 -690 -66 -1055 -158 -394 -100 -676 -198 -951
-330 -162 -77 -226 -116 -287 -174 -90 -85 -99 -137 -95 -556 3 -322 4 -331
26 -373 63 -118 165 -112 533 34 528 208 1018 340 1454 390 182 21 610 24 790
5 361 -38 640 -123 842 -257 289 -192 449 -512 519 -1034 12 -95 18 -236 21
-582 3 -261 1 -458 -4 -458 -4 0 -114 22 -243 50 -305 64 -471 94 -683 124
-963 138 -1715 80 -2336 -180 -560 -235 -1009 -659 -1230 -1162 -122 -277
-178 -549 -188 -907 -18 -705 190 -1264 628 -1691 445 -432 1049 -626 1849
-593 576 25 1101 191 1563 496 228 150 467 356 642 552 49 56 92 101 95 101 3
0 41 -71 84 -157 220 -442 438 -734 612 -818 61 -30 166 -32 238 -5 76 29 613
385 684 454 87 83 119 166 101 259 -5 27 -53 139 -108 250 -221 448 -278 648
-303 1067 -6 96 -14 865 -18 1710 -4 844 -10 1551 -14 1570 -3 19 -10 82 -16
140 -37 355 -133 712 -266 986 -379 781 -1101 1173 -2284 1244 -150 9 -462 11
-600 3z m725 -4263 c315 -27 665 -80 945 -143 l145 -32 3 -145 c7 -311 -25
-686 -77 -905 -70 -294 -223 -536 -480 -757 -256 -222 -496 -341 -874 -433
-205 -51 -321 -66 -538 -72 -221 -6 -349 5 -489 42 -197 53 -332 129 -463 262
-122 123 -191 233 -243 387 -84 246 -96 619 -29 888 51 204 141 365 285 509
250 251 596 376 1140 413 92 6 547 -3 675 -14z"/>
<path d="M8188 15005 c-116 -37 -144 -151 -89 -366 29 -116 2004 -6625 2043
-6734 35 -99 94 -208 134 -249 44 -45 118 -82 194 -96 87 -16 970 -13 1051 4
152 33 221 103 283 288 14 40 318 1299 676 2798 358 1499 653 2726 655 2728 6
6 -20 110 679 -2800 361 -1500 666 -2754 680 -2787 53 -131 120 -196 233 -227
62 -17 111 -19 573 -19 501 0 506 0 568 23 35 12 81 34 103 49 47 31 106 117
142 206 14 35 479 1518 1032 3293 553 1776 1024 3285 1047 3354 89 278 91 439
4 508 -51 40 -110 44 -594 40 -390 -4 -465 -7 -515 -21 -78 -23 -127 -49 -166
-89 -34 -34 -97 -156 -126 -243 -9 -27 -342 -1312 -741 -2855 -398 -1543 -727
-2813 -731 -2823 -5 -11 -246 994 -677 2820 -367 1561 -679 2872 -693 2913
-51 157 -120 233 -247 273 -69 21 -83 22 -541 22 -508 0 -532 -2 -643 -58 -83
-41 -138 -131 -186 -302 -14 -49 -316 -1325 -671 -2835 -679 -2885 -655 -2783
-660 -2778 -2 2 -319 1248 -705 2768 -385 1521 -713 2801 -727 2845 -54 166
-121 273 -197 312 -86 44 -108 46 -636 49 -423 3 -513 1 -552 -11z"/>
</g>
</svg>
