<?xml version="1.0" standalone="no"?>
<!DOCTYPE svg PUBLIC "-//W3C//DTD SVG 20010904//EN"
 "http://www.w3.org/TR/2001/REC-SVG-20010904/DTD/svg10.dtd">
<svg version="1.0" xmlns="http://www.w3.org/2000/svg"
 width="2560.000000pt" height="1236.000000pt" viewBox="0 0 2560.000000 1236.000000"
 preserveAspectRatio="xMidYMid meet">

<g transform="translate(0.000000,1236.000000) scale(0.100000,-0.100000)"
fill="#000000" stroke="none">
<path d="M12463 12103 l-523 -186 0 -2784 c0 -1530 -4 -2783 -8 -2783 -4 0
-163 53 -352 119 l-345 119 -3 2541 c-1 1397 -4 2541 -6 2541 -2 0 -477 -166
-1055 -370 -579 -203 -1054 -370 -1057 -370 -2 0 -4 -808 -4 -1795 0 -987 -4
-1795 -8 -1795 -4 0 -163 53 -352 119 l-345 119 -3 1551 c-1 853 -4 1551 -6
1551 -2 0 -161 -54 -352 -120 -192 -66 -350 -120 -351 -120 -2 0 -3 -756 -3
-1679 l0 -1679 58 -20 c31 -11 504 -176 1050 -366 546 -190 997 -346 1003
-346 5 0 9 762 9 2039 l0 2039 88 31 c48 17 206 73 352 125 l265 94 3 -2293 2
-2293 43 -15 c23 -8 492 -171 1042 -362 550 -191 1008 -350 1018 -353 16 -4
17 145 17 3025 l0 3030 174 62 c96 33 181 61 190 61 8 0 91 -28 185 -61 l171
-61 0 -3030 0 -3030 23 6 c12 3 486 167 1052 364 l1030 359 5 2294 c4 2032 7
2294 20 2291 8 -2 169 -57 358 -124 l342 -121 0 -2038 c0 -1122 4 -2039 9
-2039 8 0 2029 700 2084 721 l27 11 0 1678 c0 1589 -1 1678 -17 1685 -10 4
-160 56 -333 115 -173 60 -323 112 -332 115 -17 7 -18 -71 -18 -1543 l0 -1550
-57 -20 c-367 -127 -647 -222 -654 -222 -5 0 -9 795 -9 1794 l0 1794 -27 10
c-16 5 -487 170 -1048 367 -561 197 -1026 360 -1032 362 -10 4 -13 -510 -15
-2537 l-3 -2542 -344 -119 c-189 -65 -347 -119 -352 -119 -5 0 -9 1183 -9
2784 l0 2784 -42 15 c-24 8 -260 92 -526 186 -265 94 -488 171 -495 170 -6 0
-247 -84 -534 -186z"/>
<path d="M19530 8414 c-256 -55 -460 -286 -489 -556 -35 -322 163 -608 475
-688 298 -76 613 79 739 365 38 85 59 206 51 300 -12 163 -70 290 -186 406
-154 155 -374 220 -590 173z m321 -83 c166 -53 309 -197 362 -366 31 -99 30
-262 -2 -355 -69 -199 -230 -344 -426 -385 -88 -18 -142 -18 -230 0 -207 43
-376 205 -430 411 -25 96 -21 238 10 331 63 189 214 330 401 378 80 20 229 14
315 -14z"/>
<path d="M19410 7801 l0 -331 80 0 80 0 0 106 0 105 52 -3 51 -3 72 -100 72
-100 92 -3 c50 -1 91 0 91 4 0 3 -36 56 -81 117 -70 98 -78 113 -64 122 62 36
83 55 103 95 19 37 23 57 20 116 -4 90 -34 141 -105 175 -45 23 -61 24 -255
27 l-208 3 0 -330z m356 184 c42 -17 69 -71 55 -107 -19 -51 -46 -63 -152 -66
l-99 -4 0 96 0 96 80 0 c48 0 95 -6 116 -15z"/>
<path d="M5015 2903 c-372 -48 -704 -237 -918 -522 -245 -326 -339 -760 -257
-1185 104 -538 499 -939 1045 -1061 96 -22 380 -31 486 -16 116 17 260 54 349
90 41 17 80 31 85 30 6 0 55 -54 110 -120 l100 -119 213 0 c131 0 212 4 210
10 -1 5 -83 102 -181 215 l-178 206 33 26 c213 172 365 435 434 753 16 69 19
127 19 310 -1 208 -3 233 -27 337 -131 554 -554 950 -1108 1038 -87 14 -334
19 -415 8z m407 -352 c327 -86 566 -299 691 -616 57 -145 72 -234 72 -435 0
-184 -8 -238 -52 -375 -44 -136 -116 -257 -230 -384 l-49 -54 -103 121 -104
122 -213 0 c-118 0 -214 -2 -214 -6 0 -3 79 -95 176 -205 l175 -199 -35 -15
c-65 -27 -199 -55 -297 -61 -400 -27 -786 222 -948 610 -125 302 -114 690 28
981 140 285 383 472 690 530 105 20 311 13 413 -14z"/>
<path d="M17 2803 c-4 -3 -7 -591 -7 -1305 l0 -1298 1165 0 1165 0 0 165 0
165 -970 0 -970 0 0 425 0 425 625 0 625 0 0 170 0 170 -625 0 -625 0 0 370 0
370 935 0 935 0 0 175 0 175 -1123 0 c-618 0 -1127 -3 -1130 -7z"/>
<path d="M12820 1505 l0 -1305 185 0 185 0 -2 1303 -3 1302 -182 3 -183 2 0
-1305z"/>
<path d="M15440 1505 l0 -1305 185 0 185 0 2 1025 3 1024 925 -1024 925 -1025
183 0 182 0 0 1305 0 1305 -185 0 -185 0 0 -1021 c0 -679 -3 -1018 -10 -1014
-6 3 -422 463 -926 1021 l-915 1014 -185 0 -184 0 0 -1305z"/>
<path d="M20310 1505 l0 -1305 185 0 185 0 0 1305 0 1305 -185 0 -185 0 0
-1305z"/>
<path d="M22760 2805 c0 -5 940 -1082 1017 -1166 l24 -26 -651 -702 c-357
-386 -650 -704 -650 -706 0 -3 107 -5 238 -4 l237 0 535 580 535 581 25 -29
c14 -15 245 -277 514 -581 l489 -552 253 0 c140 0 254 3 254 6 0 3 -284 321
-631 706 l-630 700 24 27 c13 14 246 271 517 571 271 300 505 557 518 573 l26
27 -230 0 -229 0 -428 -465 c-235 -256 -431 -465 -436 -465 -4 0 -194 209
-421 465 l-413 465 -244 0 c-133 0 -243 -2 -243 -5z"/>
<path d="M8470 1990 c0 -511 4 -846 11 -907 58 -526 409 -883 937 -954 115
-15 350 -5 467 20 463 100 749 414 814 894 7 50 11 379 11 918 l0 839 -185 0
-184 0 -3 -867 -3 -868 -23 -75 c-81 -262 -257 -433 -522 -506 -92 -26 -329
-26 -420 0 -249 69 -418 245 -492 511 -22 79 -23 86 -26 943 l-3 862 -189 0
-190 0 0 -810z"/>
</g>
</svg>
