<svg width="40" height="40" viewBox="0 0 40 40" fill="none" xmlns="http://www.w3.org/2000/svg">
    <g filter="url(#filter0_d_5350_3607)">
    <rect x="4" width="31.3548" height="31.3548" rx="3" fill="#227AFF"/>
    </g>
    <path d="M19.2847 9.97592C15.4173 9.97592 11.3047 9.03045 11.3047 7.27507C11.3047 5.51969 15.4173 4.57422 19.2847 4.57422C23.1522 4.57422 27.2648 5.51969 27.2648 7.27507C27.2682 9.03045 23.1556 9.97592 19.2847 9.97592ZM19.2847 5.1842C14.9441 5.1842 11.9175 6.28555 11.9175 7.27507C11.9175 8.26459 14.9441 9.36594 19.2847 9.36594C23.6254 9.36594 26.652 8.26459 26.652 7.27507C26.652 6.28555 23.6288 5.1842 19.2847 5.1842Z" fill="white"/>
    <path d="M19.2847 15.6344C15.4173 15.6344 11.3047 14.689 11.3047 12.9336H11.9175C11.9175 13.9231 14.9441 15.0245 19.2847 15.0245C23.6254 15.0245 26.652 13.9231 26.652 12.9336H27.2648C27.2682 14.689 23.1556 15.6344 19.2847 15.6344Z" fill="white"/>
    <path d="M11.6111 17.1085C11.4409 17.1085 11.3047 16.9729 11.3047 16.8035V7.27765C11.3047 7.10821 11.4409 6.97266 11.6111 6.97266C11.7813 6.97266 11.9175 7.10821 11.9175 7.27765V16.8035C11.9175 16.9729 11.7813 17.1085 11.6111 17.1085Z" fill="white"/>
    <path d="M26.9548 17.1085C26.7846 17.1085 26.6484 16.9729 26.6484 16.8035V7.27765C26.6484 7.10821 26.7846 6.97266 26.9548 6.97266C27.1251 6.97266 27.2612 7.10821 27.2612 7.27765V16.8035C27.2646 16.9729 27.1251 17.1085 26.9548 17.1085Z" fill="white"/>
    <path d="M19.6727 20.531C19.0496 20.531 18.6105 20.2226 18.5832 20.2057C18.5798 20.2057 17.6027 19.6296 16.3908 19.6296C15.686 19.6296 15.2707 19.7855 14.8281 19.9481C14.4877 20.0735 14.137 20.2057 13.6672 20.2531C12.588 20.365 10.804 19.6364 10.7291 19.6059C10.5725 19.5415 10.4976 19.3653 10.5623 19.2094C10.627 19.0535 10.8074 18.9789 10.9606 19.0433C10.9777 19.0501 12.6799 19.738 13.6025 19.6465C13.994 19.6059 14.297 19.494 14.6136 19.3754C15.063 19.2094 15.5737 19.0196 16.3908 19.0196C17.7866 19.0196 18.876 19.6703 18.9237 19.7008C18.9679 19.7313 19.6352 20.182 20.4182 19.7008C21.3715 19.1145 22.3962 18.6028 23.564 19.3077C24.2925 19.7482 25.3649 20.1108 26.3148 19.3314C27.3565 18.4774 27.8638 18.6062 27.9966 18.6638C28.1498 18.735 28.2179 18.9146 28.1498 19.0671C28.0851 19.2094 27.9217 19.2805 27.7753 19.2297C27.7344 19.2263 27.4178 19.2195 26.7063 19.8024C25.7462 20.5852 24.5206 20.5954 23.2473 19.8261C22.4541 19.3483 21.7562 19.5923 20.7417 20.2158C20.3535 20.4531 19.9893 20.531 19.6727 20.531Z" fill="white"/>
    <path d="M19.6727 24.4758C19.0496 24.4758 18.6105 24.1674 18.5832 24.1505C18.5798 24.1505 17.6027 23.571 16.3908 23.571C15.686 23.571 15.2707 23.7269 14.8281 23.8895C14.4877 24.0149 14.137 24.1471 13.6672 24.1945C12.5914 24.3064 10.804 23.5778 10.7291 23.5473C10.5725 23.4829 10.4976 23.3067 10.5623 23.1508C10.627 22.9949 10.8074 22.9204 10.9606 22.9847C10.9777 22.9915 12.6833 23.6828 13.6025 23.5879C13.994 23.5473 14.297 23.4354 14.6136 23.3168C15.063 23.1508 15.5737 22.961 16.3908 22.961C17.7866 22.961 18.876 23.6117 18.9237 23.6422C18.9679 23.6727 19.6352 24.1234 20.4182 23.6422C21.3715 23.0559 22.3996 22.5442 23.564 23.2491C24.2925 23.6896 25.3649 24.0522 26.3148 23.2728C27.3565 22.4188 27.8638 22.5476 27.9966 22.6052C28.1498 22.6764 28.2179 22.856 28.1498 23.0085C28.0851 23.1508 27.9217 23.222 27.7753 23.1711C27.7344 23.1677 27.4178 23.161 26.7063 23.7404C25.7462 24.5232 24.5206 24.5334 23.2473 23.7642C22.4541 23.2863 21.7562 23.5303 20.7417 24.1539C20.3535 24.3945 19.9893 24.4758 19.6727 24.4758Z" fill="white"/>
    <defs>
    <filter id="filter0_d_5350_3607" x="0" y="0" width="39.3516" height="39.3555" filterUnits="userSpaceOnUse" color-interpolation-filters="sRGB">
    <feFlood flood-opacity="0" result="BackgroundImageFix"/>
    <feColorMatrix in="SourceAlpha" type="matrix" values="0 0 0 0 0 0 0 0 0 0 0 0 0 0 0 0 0 0 127 0" result="hardAlpha"/>
    <feOffset dy="4"/>
    <feGaussianBlur stdDeviation="2"/>
    <feComposite in2="hardAlpha" operator="out"/>
    <feColorMatrix type="matrix" values="0 0 0 0 0 0 0 0 0 0 0 0 0 0 0 0 0 0 0.25 0"/>
    <feBlend mode="normal" in2="BackgroundImageFix" result="effect1_dropShadow_5350_3607"/>
    <feBlend mode="normal" in="SourceGraphic" in2="effect1_dropShadow_5350_3607" result="shape"/>
    </filter>
    </defs>
    </svg>
    