<?xml version="1.0" encoding="iso-8859-1"?>
<!-- Uploaded to: SVG Repo, www.svgrepo.com, Generator: SVG Repo Mixer Tools -->
<svg fill="#000000" height="800px" width="800px" version="1.1" id="Layer_1" xmlns="http://www.w3.org/2000/svg" xmlns:xlink="http://www.w3.org/1999/xlink" 
	 viewBox="0 0 501.333 501.333" xml:space="preserve">
<g>
	<g>
		<path d="M425.6,71.467h-78.933V21.333C346.667,9.6,337.067,0,325.333,0H177.067c-11.733,0-21.333,9.6-21.333,21.333v50.133h-80
			C64,71.467,54.4,81.067,54.4,92.8v84.267C54.4,188.8,64,198.4,75.733,198.4h14.933l28.8,283.733
			c1.067,10.667,9.6,19.2,20.267,19.2H361.6c10.667,0,20.267-8.533,22.4-19.2L411.733,198.4H425.6
			c11.733,0,20.267-9.6,21.333-21.333V92.8C446.933,81.067,437.333,71.467,425.6,71.467z M197.333,41.6H304v29.867H197.333V41.6z
			 M343.467,459.733H158.934L132.267,198.4h236.8L343.467,459.733z M405.333,155.733H97.067v-42.667h308.267V155.733z"/>
	</g>
</g>
</svg>