<?xml version="1.0" encoding="utf-8"?>
<!-- Uploaded to: SVG Repo, www.svgrepo.com, Generator: SVG Repo Mixer Tools -->
<svg width="800px" height="800px" viewBox="0 0 24 24" xmlns="http://www.w3.org/2000/svg">
  <path fill="#7a7a7a" d="M18.9988365,2 C20.6556907,2 21.9988365,3.34314575 21.9988365,5 L21.9988365,11 C21.9988365,12.6568542 20.6556907,14 18.9988365,14 L17.6178365,14 L14.4460501,20.3416408 C13.9677667,21.2982075 13.0194592,21.9231744 11.9621943,21.99339 L11.7627685,22 L11.4988365,22 C10.1733531,22 9.08879781,20.9684641 9.00415416,19.6643757 L8.99883648,19.5 L8.99883648,14 L5.00057848,14 C4.80302252,14 4.60595003,13.9804859 4.41223048,13.941742 C2.84557548,13.628411 1.80988974,12.1476205 2.02926034,10.5855 L2.05883648,10.4116516 L3.25883648,4.41165159 C3.52760539,3.06780703 4.66958239,2.08479702 6.0229129,2.00521259 L6.20057848,2 L18.9988365,2 Z"/>
  <path fill="none" stroke="#636363" stroke-width="1" d="M18.9988365,2 C20.6556907,2 21.9988365,3.34314575 21.9988365,5 L21.9988365,11 C21.9988365,12.6568542 20.6556907,14 18.9988365,14 L17.6178365,14 L14.4460501,20.3416408 C13.9677667,21.2982075 13.0194592,21.9231744 11.9621943,21.99339 L11.7627685,22 L11.4988365,22 C10.1733531,22 9.08879781,20.9684641 9.00415416,19.6643757 L8.99883648,19.5 L8.99883648,14 L5.00057848,14 C4.80302252,14 4.60595003,13.9804859 4.41223048,13.941742 C2.84557548,13.628411 1.80988974,12.1476205 2.02926034,10.5855 L2.05883648,10.4116516 L3.25883648,4.41165159 C3.52760539,3.06780703 4.66958239,2.08479702 6.0229129,2.00521259 L6.20057848,2 L18.9988365,2 Z"/>
</svg>
