<svg width="22" height="24" viewBox="0 0 22 24" fill="none" xmlns="http://www.w3.org/2000/svg">
<path d="M1 4.67188V19.3385" stroke="#222222"/>
<ellipse cx="11" cy="4.66667" rx="10" ry="3.66667" stroke="#222222"/>
<path d="M21 19.3307C21 19.8122 20.7413 20.289 20.2388 20.7339C19.7362 21.1788 18.9997 21.583 18.0711 21.9235C17.1425 22.2639 16.0401 22.534 14.8268 22.7183C13.6136 22.9026 12.3132 22.9974 11 22.9974C9.68678 22.9974 8.38642 22.9026 7.17317 22.7183C5.95991 22.534 4.85752 22.2639 3.92893 21.9235C3.00035 21.583 2.26375 21.1788 1.7612 20.7339C1.25866 20.289 1 19.8122 1 19.3307" stroke="#222222"/>
<path d="M21 4.67188V19.3385" stroke="#222222"/>
</svg>
