<svg width="22" height="17" viewBox="0 0 22 17" fill="none" xmlns="http://www.w3.org/2000/svg">
<path d="M1 8.6875H4.84912" stroke="black" stroke-width="1.00189" stroke-linecap="round" stroke-linejoin="round"/>
<path d="M17.1484 2.53906H20.9976" stroke="black" stroke-width="1.00189" stroke-linecap="round" stroke-linejoin="round"/>
<path d="M17.1484 14.8438H20.9976" stroke="black" stroke-width="1.00189" stroke-linecap="round" stroke-linejoin="round"/>
<path d="M2.53906 2.53906H14.0779" stroke="black" stroke-width="1.00189" stroke-linecap="round" stroke-linejoin="round"/>
<path d="M2.53906 14.8438H14.0779" stroke="black" stroke-width="1.00189" stroke-linecap="round" stroke-linejoin="round"/>
<path d="M9.46094 8.6875H20.9998" stroke="black" stroke-width="1.00189" stroke-linecap="round" stroke-linejoin="round"/>
<path d="M15.6178 4.07929C16.4681 4.07929 17.1574 3.38997 17.1574 2.53965C17.1574 1.68932 16.4681 1 15.6178 1C14.7674 1 14.0781 1.68932 14.0781 2.53965C14.0781 3.38997 14.7674 4.07929 15.6178 4.07929Z" stroke="black" stroke-width="1.00189" stroke-linecap="round" stroke-linejoin="round"/>
<path d="M15.6178 16.384C16.4681 16.384 17.1574 15.6947 17.1574 14.8443C17.1574 13.994 16.4681 13.3047 15.6178 13.3047C14.7674 13.3047 14.0781 13.994 14.0781 14.8443C14.0781 15.6947 14.7674 16.384 15.6178 16.384Z" stroke="black" stroke-width="1.00189" stroke-linecap="round" stroke-linejoin="round"/>
<path d="M7.15683 10.2355C8.00716 10.2355 8.69648 9.54622 8.69648 8.6959C8.69648 7.84557 8.00716 7.15625 7.15683 7.15625C6.30651 7.15625 5.61719 7.84557 5.61719 8.6959C5.61719 9.54622 6.30651 10.2355 7.15683 10.2355Z" stroke="black" stroke-width="1.00189" stroke-linecap="round" stroke-linejoin="round"/>
</svg>
