<svg width="22" height="23" viewBox="0 0 22 23" fill="none" xmlns="http://www.w3.org/2000/svg">
<path d="M1 11.2174C1 9.44071 1 8.55239 1.39209 7.77155C1.78418 6.99071 2.52052 6.4126 3.99322 5.25637L5.42179 4.13479C8.08367 2.04493 9.41461 1 11 1C12.5854 1 13.9163 2.04493 16.5782 4.13479L18.0068 5.25637C19.4795 6.4126 20.2158 6.99071 20.6079 7.77155C21 8.55239 21 9.44071 21 11.2174V16.766C21 19.2333 21 20.467 20.1632 21.2335C19.3263 22 17.9795 22 15.2857 22H6.71429C4.02055 22 2.67368 22 1.83684 21.2335C1 20.467 1 19.2333 1 16.766V11.2174Z" stroke="#222222"/>
<path d="M14.5725 21.9995V15.1484C14.5725 14.5962 14.1248 14.1484 13.5725 14.1484H8.42969C7.8774 14.1484 7.42969 14.5962 7.42969 15.1484V21.9995" stroke="#222222" stroke-linecap="round" stroke-linejoin="round"/>
</svg>
