<svg width="22" height="23" viewBox="0 0 22 23" fill="none" xmlns="http://www.w3.org/2000/svg">
<path d="M2.79507 13.475C3.78646 13.475 4.59014 12.6254 4.59014 11.5773C4.59014 10.5293 3.78646 9.67969 2.79507 9.67969C1.80368 9.67969 1 10.5293 1 11.5773C1 12.6254 1.80368 13.475 2.79507 13.475Z" stroke="black"/>
<path d="M13.0497 15.6406C15.1741 15.6406 16.8963 13.82 16.8963 11.5742C16.8963 9.32839 15.1741 7.50781 13.0497 7.50781C10.9253 7.50781 9.20312 9.32839 9.20312 11.5742C9.20312 13.82 10.9253 15.6406 13.0497 15.6406Z" stroke="black"/>
<path d="M5.87319 4.79529C6.86458 4.79529 7.66826 3.94568 7.66826 2.89764C7.66826 1.8496 6.86458 1 5.87319 1C4.8818 1 4.07812 1.8496 4.07812 2.89764C4.07812 3.94568 4.8818 4.79529 5.87319 4.79529Z" stroke="black"/>
<path d="M19.2013 4.79529C20.1927 4.79529 20.9964 3.94568 20.9964 2.89764C20.9964 1.8496 20.1927 1 19.2013 1C18.2099 1 17.4062 1.8496 17.4062 2.89764C17.4062 3.94568 18.2099 4.79529 19.2013 4.79529Z" stroke="black"/>
<path d="M18.3498 22.1547C19.3411 22.1547 20.1448 21.3051 20.1448 20.257C20.1448 19.209 19.3411 18.3594 18.3498 18.3594C17.3584 18.3594 16.5547 19.209 16.5547 20.257C16.5547 21.3051 17.3584 22.1547 18.3498 22.1547Z" stroke="black"/>
<path d="M7.0625 4.17188L10.9946 8.32862" stroke="black"/>
<path d="M15.1094 8.32758L18.1866 4.35156" stroke="black"/>
<path d="M4.50781 11.5703H9.29466" stroke="black"/>
<path d="M15.1094 14.8359L17.3318 18.6312" stroke="black"/>
</svg>
