<svg width="22" height="21" viewBox="0 0 22 21" fill="none" xmlns="http://www.w3.org/2000/svg">
<path d="M20.3081 4.68116L12.5317 1.2774C11.6888 0.907534 10.3091 0.907534 9.46619 1.2774L1.69506 4.68116C0.778729 5.08101 0.778729 5.73527 1.69506 6.13513L9.40059 9.5089C10.28 9.89376 11.7273 9.89376 12.6067 9.5089L20.3122 6.13513C21.2244 5.73527 21.2244 5.08051 20.3081 4.68116Z" stroke="black" stroke-width="1.00189" stroke-linecap="round" stroke-linejoin="round"/>
<path d="M6.00078 13.2242L1.69506 15.079C0.778729 15.4789 0.778729 16.1337 1.69506 16.5335L9.40059 19.9073C10.28 20.2916 11.7273 20.2916 12.6067 19.9073L20.3122 16.5335C21.2286 16.1337 21.2286 15.4789 20.3122 15.079L16.1502 13.1562" stroke="black" stroke-width="1.00189" stroke-linecap="round" stroke-linejoin="round"/>
<path d="M5.99818 8.02344L1.68725 9.88076C0.770917 10.2806 0.770917 10.9354 1.68725 11.3352L9.39277 14.7085C10.2721 15.0934 11.7195 15.0934 12.5989 14.7085L20.3044 11.3352C21.226 10.9354 21.226 10.2806 20.3096 9.88076L15.9945 8.02344" stroke="black" stroke-width="1.00189" stroke-linecap="round" stroke-linejoin="round"/>
</svg>
