<svg width="20" height="28" viewBox="0 0 20 28" fill="none" xmlns="http://www.w3.org/2000/svg">
<path d="M3.5 1V6" stroke="#222222" stroke-linecap="round"/>
<path d="M3.5 19.3359V26.0026" stroke="#222222" stroke-linecap="round"/>
<path d="M1.8 6.33594C1.08203 6.33594 0.5 6.91797 0.5 7.63594V17.7026C0.5 18.4206 1.08203 19.0026 1.8 19.0026H5.2C5.91797 19.0026 6.5 18.4206 6.5 17.7026V7.63594C6.5 6.91797 5.91797 6.33594 5.2 6.33594H1.8Z" stroke="#222222"/>
<path d="M16.5 4V12.3333" stroke="#222222" stroke-linecap="round"/>
<path d="M16.5 20.6641V27.3307" stroke="#222222" stroke-linecap="round"/>
<path d="M14.8 12.6641C14.082 12.6641 13.5 13.2461 13.5 13.9641V19.0307C13.5 19.7487 14.082 20.3307 14.8 20.3307H18.2C18.918 20.3307 19.5 19.7487 19.5 19.0307V13.9641C19.5 13.2461 18.918 12.6641 18.2 12.6641H14.8Z" stroke="#222222"/>
</svg>
