<svg width="22" height="22" viewBox="0 0 22 22" fill="none" xmlns="http://www.w3.org/2000/svg">
<path d="M8.50156 1H1.96174C1.43058 1 1 1.43058 1 1.96174V8.50156C1 9.03271 1.43058 9.4633 1.96174 9.4633H8.50156C9.03271 9.4633 9.4633 9.03271 9.4633 8.50156V1.96174C9.4633 1.43058 9.03271 1 8.50156 1Z" stroke="black" stroke-width="1.00189" stroke-linecap="round" stroke-linejoin="round"/>
<path d="M20.0406 1H13.5008C12.9696 1 12.5391 1.43058 12.5391 1.96174V8.50156C12.5391 9.03271 12.9696 9.4633 13.5008 9.4633H20.0406C20.5718 9.4633 21.0024 9.03271 21.0024 8.50156V1.96174C21.0024 1.43058 20.5718 1 20.0406 1Z" stroke="black" stroke-width="1.00189" stroke-linecap="round" stroke-linejoin="round"/>
<path d="M8.50156 12.5391H1.96174C1.43058 12.5391 1 12.9696 1 13.5008V20.0406C1 20.5718 1.43058 21.0024 1.96174 21.0024H8.50156C9.03271 21.0024 9.4633 20.5718 9.4633 20.0406V13.5008C9.4633 12.9696 9.03271 12.5391 8.50156 12.5391Z" stroke="black" stroke-width="1.00189" stroke-linecap="round" stroke-linejoin="round"/>
<path d="M20.0406 12.5391H13.5008C12.9696 12.5391 12.5391 12.9696 12.5391 13.5008V20.0406C12.5391 20.5718 12.9696 21.0024 13.5008 21.0024H20.0406C20.5718 21.0024 21.0024 20.5718 21.0024 20.0406V13.5008C21.0024 12.9696 20.5718 12.5391 20.0406 12.5391Z" stroke="black" stroke-width="1.00189" stroke-linecap="round" stroke-linejoin="round"/>
</svg>
