<svg width="22" height="22" viewBox="0 0 22 22" fill="none" xmlns="http://www.w3.org/2000/svg">
<path d="M3.64709 18.3647C3.19179 17.9095 2.83061 17.3692 2.58419 16.7745C2.33777 16.1797 2.21094 15.5423 2.21094 14.8986C2.21094 14.2548 2.33777 13.6174 2.58419 13.0227C2.83061 12.4279 3.19179 11.8876 3.64709 11.4325L5.38031 9.70312L12.3132 16.6316L10.58 18.3647C10.1248 18.8199 9.58439 19.1811 8.98961 19.4275C8.39483 19.6739 7.75733 19.8007 7.11353 19.8007C6.46972 19.8007 5.83223 19.6739 5.23745 19.4275C4.64267 19.1811 4.10226 18.8199 3.64709 18.3647Z" stroke="black" stroke-linejoin="round"/>
<path d="M6.67188 10.986L9.705 7.95312" stroke="black" stroke-linejoin="round"/>
<path d="M1 21.0034L3.64427 18.3594" stroke="black" stroke-linejoin="round"/>
<path d="M18.3499 3.65292C18.8052 4.10804 19.1664 4.64839 19.4128 5.24311C19.6592 5.83783 19.786 6.47527 19.786 7.11901C19.786 7.76275 19.6592 8.40019 19.4128 8.99491C19.1664 9.58963 18.8052 10.13 18.3499 10.5851L16.6167 12.3182L9.6875 5.38596L11.4207 3.65292C12.3398 2.7346 13.586 2.21875 14.8853 2.21875C16.1846 2.21875 17.4308 2.7346 18.3499 3.65292Z" stroke="black" stroke-linejoin="round"/>
<path d="M21.0036 1L18.3594 3.64401" stroke="black" stroke-linejoin="round"/>
<path d="M11.0078 15.3219L14.0409 12.2891" stroke="black" stroke-linejoin="round"/>
</svg>
