<svg width="35" height="37" viewBox="0 0 35 37" fill="none" xmlns="http://www.w3.org/2000/svg">
<path d="M6.30156 21.0902C7.65466 21.0902 8.75156 19.9306 8.75156 18.5002C8.75156 17.0697 7.65466 15.9102 6.30156 15.9102C4.94846 15.9102 3.85156 17.0697 3.85156 18.5002C3.85156 19.9306 4.94846 21.0902 6.30156 21.0902Z" stroke="black"/>
<path d="M20.2969 24.0492C23.1964 24.0492 25.5469 21.5644 25.5469 18.4992C25.5469 15.434 23.1964 12.9492 20.2969 12.9492C17.3974 12.9492 15.0469 15.434 15.0469 18.4992C15.0469 21.5644 17.3974 24.0492 20.2969 24.0492Z" stroke="black"/>
<path d="M10.4969 9.25031C11.85 9.25031 12.9469 8.09073 12.9469 6.66031C12.9469 5.22989 11.85 4.07031 10.4969 4.07031C9.14378 4.07031 8.04688 5.22989 8.04688 6.66031C8.04688 8.09073 9.14378 9.25031 10.4969 9.25031Z" stroke="black"/>
<path d="M28.7 9.25031C30.0531 9.25031 31.15 8.09073 31.15 6.66031C31.15 5.22989 30.0531 4.07031 28.7 4.07031C27.3469 4.07031 26.25 5.22989 26.25 6.66031C26.25 8.09073 27.3469 9.25031 28.7 9.25031Z" stroke="black"/>
<path d="M27.5359 32.93C28.889 32.93 29.9859 31.7704 29.9859 30.34C29.9859 28.9096 28.889 27.75 27.5359 27.75C26.1828 27.75 25.0859 28.9096 25.0859 30.34C25.0859 31.7704 26.1828 32.93 27.5359 32.93Z" stroke="black"/>
<path d="M12.1328 8.38672L17.4995 14.0601" stroke="black"/>
<path d="M23.1016 14.0595L27.3016 8.63281" stroke="black"/>
<path d="M8.63281 18.5H15.1661" stroke="black"/>
<path d="M23.1016 22.9395L26.1349 28.1195" stroke="black"/>
</svg>
