<svg width="25" height="37" viewBox="0 0 25 37" fill="none" xmlns="http://www.w3.org/2000/svg">
<path d="M23.9531 30.5259C23.9531 33.6048 21.4581 36.1054 18.3808 36.1054C15.3035 36.1054 12.8085 33.6048 12.8085 30.5259C12.8085 27.4478 15.3028 24.9536 18.3808 24.9536C21.4589 24.9536 23.9531 27.4478 23.9531 30.5259ZM23.664 6.82229C23.664 9.93296 21.4274 12.3946 18.3808 12.3946C14.7505 12.3946 12.0977 15.0474 12.0977 18.6777C12.0977 21.7243 9.63608 23.9608 6.52541 23.9608C3.41474 23.9608 0.953125 21.7243 0.953125 18.6777C0.953125 15.5691 3.47687 12.8163 6.52541 12.8163C8.31057 12.8163 9.81975 12.2447 10.8838 11.1807C11.9478 10.1166 12.5194 8.60744 12.5194 6.82229C12.5194 3.77375 15.2723 1.25 18.3808 1.25C21.4274 1.25 23.664 3.71162 23.664 6.82229Z" fill="white" stroke="black"/>
</svg>
