<svg xmlns="http://www.w3.org/2000/svg" width="28" height="28" fill="none"><path d="M23.64 14.903c-1.602 6.428-8.114 10.34-14.544 8.738C2.669 22.038-1.244 15.527.359 9.098 1.962 2.67 8.473-1.244 14.902.36c6.43 1.603 10.342 8.115 8.739 14.544Z" fill="#fff"/><path d="M5.014 19.883h1.09v1.02h2.048V22h7.696v-1.096h2.048v-1.021h1.09v-1.054H5.014v1.054Z" fill="#7317F7"/><path d="M3.011 15.768v2.092h.987v.969h16.004v-.97h.987v-2.091H3.01Z" fill="#8416F8"/><path d="M20.989 8.202V6.07h-.987v-.989h-1.016V4.055h-1.038v-.988H15.88V2H8.12v1.067H6.052v.988H5.014v1.027H3.998v.989h-.987v2.131H2v1.44h12.009v-.258h.751v.257H22V8.202h-1.011Z" fill="#F92EF1"/><path d="M9.41 12.549h1.74v.254H9.41v-.255Zm5.35-2.908v.392h1.046v.747h-2.534v1.022h1.825v.747h.751v.254h2.054V10.78h-1.415v-.747h3.581v.747h-1.415v2.023H22V9.641h-7.24Z" fill="#C815F8"/><path d="M13.272 11.802h-.752V10.78h.752v-.747h.737v-.392H2v3.162h2.37V10.78h.752v-.747h2.903v.747H5.121v2.023h2.166v-.255H5.844v-.746h2.195v1.001h.62v-2.77h.751v1.769h1.74v-1.769h.751v2.77h3.195v-.255h-1.824v-.746Z" fill="#C815F8"/><path d="M5.121 12.803h2.166v.86H5.12v-.86Z" fill="#A215F8"/><path d="M18.654 12.803v1.607h-.752v-1.607h-2.054v.768h-.752v.746h-.336v.703h-.751v-.703h-1.411v-.746h2.498v-.768h-3.195v1.607h-.752v-1.607H9.41v1.607H8.66v-1.607h-.62v.86h-.752v.747H5.122v-.747H4.37v-.86H2v2.965h20v-2.965h-3.346Z" fill="#A215F8"/><path d="M15.096 12.549h.752v.254h-.752v-.255Z" fill="#fff"/></svg>