<?xml version="1.0" standalone="no"?>
<!DOCTYPE svg PUBLIC "-//W3C//DTD SVG 20010904//EN"
 "http://www.w3.org/TR/2001/REC-SVG-20010904/DTD/svg10.dtd">
<svg version="1.0" xmlns="http://www.w3.org/2000/svg"
 width="992.000000pt" height="992.000000pt" viewBox="0 0 992.000000 992.000000"
 preserveAspectRatio="xMidYMid meet">

<g transform="translate(0.000000,992.000000) scale(0.100000,-0.100000)"
fill="#000000" stroke="none">
<path d="M4730 7049 c-712 -81 -1345 -526 -1656 -1164 -143 -294 -214 -591
-214 -901 0 -581 212 -1102 611 -1503 194 -195 434 -358 669 -456 708 -294
1491 -191 2100 274 72 55 121 97 217 190 8 7 51 57 97 110 277 322 447 715
496 1146 29 258 -7 588 -93 855 -42 131 -56 164 -133 317 -319 630 -936 1054
-1649 1133 -106 12 -338 11 -445 -1z m820 -1069 c74 -14 166 -58 229 -109 l54
-43 81 22 c44 12 114 37 155 56 41 19 76 32 80 29 20 -21 -119 -207 -184 -247
-16 -10 -23 -18 -15 -18 31 0 154 30 208 50 30 11 57 19 59 16 11 -11 -143
-179 -213 -232 l-31 -24 -6 -128 c-25 -576 -390 -1106 -905 -1313 -165 -67
-304 -96 -502 -105 -225 -10 -422 21 -615 98 -85 33 -221 104 -231 119 -3 5
38 9 96 9 102 0 216 13 280 31 120 35 278 112 337 164 l28 24 -37 1 c-81 0
-225 66 -303 138 -53 49 -135 175 -135 208 0 2 30 4 68 4 80 0 142 9 142 21 0
5 -8 9 -19 9 -33 0 -158 69 -211 116 -87 79 -151 211 -163 337 -5 52 -1 55 46
30 37 -19 122 -43 154 -43 18 0 13 9 -34 52 -66 63 -126 162 -147 245 -29 113
-18 258 29 357 l18 37 88 -90 c49 -49 106 -103 126 -118 21 -15 40 -31 43 -34
3 -4 41 -30 85 -58 201 -131 460 -221 675 -233 50 -3 55 -1 52 17 -22 164 31
342 136 450 55 56 73 70 144 107 104 53 223 70 338 48z"/>
</g>
</svg>
