<svg width="16" height="16" viewBox="0 0 16 16" fill="none" xmlns="http://www.w3.org/2000/svg">
<path d="M9.15192 14.4953L8.38938 15.2578C8.06651 15.5807 7.54441 15.5807 7.22497 15.2578L0.547614 8.58392C0.224738 8.26105 0.224738 7.73895 0.547614 7.41951L7.22497 0.742156C7.54784 0.41928 8.06994 0.41928 8.38938 0.742156L9.15192 1.50469C9.47823 1.831 9.47136 2.36341 9.13818 2.68285L4.99918 6.62606L14.8709 6.62606C15.3278 6.62606 15.6953 6.99359 15.6953 7.45042L15.6953 8.54958C15.6953 9.00641 15.3278 9.37394 14.8709 9.37394H4.99918L9.13818 13.3172C9.4748 13.6366 9.48167 14.169 9.15192 14.4953Z" fill="white"/>
</svg>
