<svg width="18" height="19" viewBox="0 0 18 19" fill="none" xmlns="http://www.w3.org/2000/svg">
<path d="M10.0806 18.0275H7.9379C7.83461 18.0275 7.74455 17.9608 7.71277 17.8649L7.11418 16.0851C6.77516 15.9812 5.88258 15.6881 5.42966 15.3524L3.68158 16.2077C3.59152 16.2503 3.48293 16.2343 3.41142 16.165L1.85668 14.6516C1.77987 14.577 1.76133 14.4598 1.8143 14.3639L2.73602 12.6773C2.56386 12.4268 2.2116 11.8353 2.02089 10.9401L0.161566 10.2926C0.0662154 10.258 0 10.1674 0 10.0662V7.98793C0 7.88401 0.0662154 7.79342 0.164214 7.76145L2.02354 7.13798C2.09506 6.82624 2.30165 6.05622 2.71748 5.42742L1.85933 3.65558C1.8143 3.56499 1.83284 3.45575 1.90171 3.38381L3.3558 1.87042C3.42731 1.79582 3.53855 1.77717 3.63125 1.8198L5.41907 2.68307C5.66009 2.52853 6.24014 2.19815 7.11683 2.00897L7.68629 0.167859C7.71807 0.0666107 7.81077 0 7.91407 0H10.1071C10.2104 0 10.3005 0.0666106 10.3323 0.16253L10.952 2.00897C11.2805 2.08091 12.1068 2.29673 12.6392 2.70172L14.337 1.84911C14.427 1.80381 14.533 1.8198 14.6071 1.88907L16.138 3.32519C16.2148 3.39713 16.236 3.50904 16.191 3.60229L15.3487 5.41943C15.4918 5.70186 15.8705 6.48253 15.9844 7.04739L17.8464 7.76678C17.9391 7.80142 18 7.89201 18 7.99059V10.0182C18 10.1195 17.9364 10.2101 17.8437 10.2447L16.0003 10.9188C15.9155 11.2465 15.6745 12.1258 15.3355 12.6373L16.1698 14.4332C16.2122 14.5237 16.1936 14.6303 16.1248 14.7023L14.6469 16.2423C14.5753 16.3169 14.4614 16.3382 14.3687 16.2903L12.5597 15.379C12.3214 15.5416 11.7599 15.8719 10.9573 16.0291L10.3137 17.8729C10.2713 17.9635 10.1813 18.0275 10.0806 18.0275ZM8.11006 17.5479H9.91112L10.5441 15.7334C10.5733 15.6508 10.6448 15.5895 10.7322 15.5762C11.7466 15.411 12.3743 14.9127 12.3796 14.9074C12.4511 14.8488 12.5518 14.8381 12.6365 14.8808L14.4191 15.776L15.6639 14.4811L14.8402 12.7066C14.8005 12.624 14.8137 12.5254 14.872 12.4535C15.2004 12.0458 15.4838 11.0334 15.5633 10.679C15.5818 10.5991 15.6374 10.5351 15.7142 10.5085L17.5206 9.84769V8.15312L15.6851 7.44172C15.603 7.40975 15.5447 7.33514 15.5341 7.24722C15.4626 6.65838 14.8773 5.54732 14.872 5.53666C14.8376 5.47005 14.8349 5.39012 14.8667 5.32351L15.6851 3.557L14.4032 2.35268L12.716 3.20263C12.6286 3.24793 12.5227 3.23194 12.4485 3.16533C11.9188 2.68041 10.7428 2.45659 10.7295 2.45393C10.6448 2.43794 10.5759 2.37666 10.5468 2.29406L9.93761 0.48226H8.09152L7.53267 2.28874C7.50618 2.374 7.43732 2.43528 7.34991 2.45393C6.22955 2.66975 5.59388 3.14668 5.58858 3.15201C5.51707 3.20796 5.42172 3.21595 5.33961 3.17865L3.58358 2.3287L2.36521 3.59697L3.21012 5.34482C3.24985 5.42476 3.23926 5.52068 3.18893 5.59262C2.66716 6.30668 2.46851 7.35646 2.46586 7.36712C2.44997 7.45238 2.38905 7.52432 2.30695 7.55096L0.482048 8.16378V9.89832L2.30959 10.5351C2.3917 10.5644 2.44997 10.6337 2.46586 10.7163C2.6804 11.862 3.19953 12.4988 3.20483 12.5041C3.26839 12.5787 3.27899 12.688 3.23131 12.7732L2.32549 14.4332L3.62861 15.7014L5.3661 14.8515C5.45615 14.8062 5.56739 14.8248 5.63891 14.8968C5.9382 15.1978 6.9897 15.5469 7.3711 15.6561C7.44526 15.6774 7.50618 15.7361 7.53267 15.8107L8.11006 17.5479Z" fill="black"/>
<path d="M9.00534 12.77C6.94736 12.77 5.27344 11.0861 5.27344 9.01588C5.27344 6.94563 6.94736 5.26172 9.00534 5.26172C11.0633 5.26172 12.7372 6.94563 12.7372 9.01588C12.7372 11.0861 11.0607 12.77 9.00534 12.77ZM9.00534 5.74131C7.20958 5.74131 5.75019 7.20941 5.75019 9.01588C5.75019 10.8224 7.20958 12.2905 9.00534 12.2905C10.8011 12.2905 12.2605 10.8224 12.2605 9.01588C12.2605 7.20941 10.7985 5.74131 9.00534 5.74131Z" fill="black"/>
</svg>
