<svg width="40" height="37" viewBox="0 0 40 37" fill="none" xmlns="http://www.w3.org/2000/svg">
<path d="M32.6847 18.8867H7.30927C4.62856 18.8867 2.45312 16.6923 2.45312 13.9883C2.45312 11.2842 4.62856 9.08984 7.30927 9.08984H32.6847C35.3654 9.08984 37.5408 11.2842 37.5408 13.9883C37.5408 16.6923 35.3654 18.8867 32.6847 18.8867Z" stroke="#231F20" stroke-width="1.5" stroke-miterlimit="10" stroke-linecap="round" stroke-linejoin="round"/>
<path d="M6 13.9883H23.4526" stroke="#231F20" stroke-width="1.5" stroke-miterlimit="10" stroke-linecap="round" stroke-linejoin="round"/>
<path d="M27.2601 14.8039C27.7058 14.8039 28.0672 14.4394 28.0672 13.9898C28.0672 13.5402 27.7058 13.1758 27.2601 13.1758C26.8144 13.1758 26.4531 13.5402 26.4531 13.9898C26.4531 14.4394 26.8144 14.8039 27.2601 14.8039Z" fill="#231F20"/>
<path d="M29.9164 14.8039C30.3621 14.8039 30.7234 14.4394 30.7234 13.9898C30.7234 13.5402 30.3621 13.1758 29.9164 13.1758C29.4707 13.1758 29.1094 13.5402 29.1094 13.9898C29.1094 14.4394 29.4707 14.8039 29.9164 14.8039Z" fill="#231F20"/>
<path d="M32.5805 14.8039C33.0262 14.8039 33.3875 14.4394 33.3875 13.9898C33.3875 13.5402 33.0262 13.1758 32.5805 13.1758C32.1348 13.1758 31.7734 13.5402 31.7734 13.9898C31.7734 14.4394 32.1348 14.8039 32.5805 14.8039Z" fill="#231F20"/>
<path d="M32.6847 28.6835H7.30927C4.62856 28.6835 2.45312 26.4892 2.45312 23.7851C2.45312 21.0811 4.62856 18.8867 7.30927 18.8867H32.6847C35.3654 18.8867 37.5408 21.0811 37.5408 23.7851C37.5408 26.4892 35.3654 28.6835 32.6847 28.6835Z" stroke="#231F20" stroke-width="1.5" stroke-miterlimit="10" stroke-linecap="round" stroke-linejoin="round"/>
<path d="M6 23.7852H23.4526" stroke="#231F20" stroke-width="1.5" stroke-miterlimit="10" stroke-linecap="round" stroke-linejoin="round"/>
<path d="M27.2601 24.6007C27.7058 24.6007 28.0672 24.2363 28.0672 23.7867C28.0672 23.3371 27.7058 22.9727 27.2601 22.9727C26.8144 22.9727 26.4531 23.3371 26.4531 23.7867C26.4531 24.2363 26.8144 24.6007 27.2601 24.6007Z" fill="#231F20"/>
<path d="M29.9164 24.6007C30.3621 24.6007 30.7234 24.2363 30.7234 23.7867C30.7234 23.3371 30.3621 22.9727 29.9164 22.9727C29.4707 22.9727 29.1094 23.3371 29.1094 23.7867C29.1094 24.2363 29.4707 24.6007 29.9164 24.6007Z" fill="#231F20"/>
<path d="M32.5805 24.6007C33.0262 24.6007 33.3875 24.2363 33.3875 23.7867C33.3875 23.3371 33.0262 22.9727 32.5805 22.9727C32.1348 22.9727 31.7734 23.3371 31.7734 23.7867C31.7734 24.2363 32.1348 24.6007 32.5805 24.6007Z" fill="#231F20"/>
<path d="M6.37382 5.1892C7.36987 5.1892 8.17733 4.37471 8.17733 3.36999C8.17733 2.36527 7.36987 1.55078 6.37382 1.55078C5.37777 1.55078 4.57031 2.36527 4.57031 3.36999C4.57031 4.37471 5.37777 5.1892 6.37382 5.1892Z" stroke="#231F20" stroke-width="1.5" stroke-miterlimit="10"/>
<path d="M19.991 5.1892C20.9871 5.1892 21.7945 4.37471 21.7945 3.36999C21.7945 2.36527 20.9871 1.55078 19.991 1.55078C18.995 1.55078 18.1875 2.36527 18.1875 3.36999C18.1875 4.37471 18.995 5.1892 19.991 5.1892Z" stroke="#231F20" stroke-width="1.5" stroke-miterlimit="10"/>
<path d="M8.17969 3.37109H14.7271C14.7271 3.37109 15.3446 3.37109 15.3446 4.48244V7.54041" stroke="#231F20" stroke-width="1.5" stroke-miterlimit="10"/>
<path d="M33.741 5.1892C34.7371 5.1892 35.5445 4.37471 35.5445 3.36999C35.5445 2.36527 34.7371 1.55078 33.741 1.55078C32.745 1.55078 31.9375 2.36527 31.9375 3.36999C31.9375 4.37471 32.745 5.1892 33.741 5.1892Z" stroke="#231F20" stroke-width="1.5" stroke-miterlimit="10"/>
<path d="M31.9462 3.37109H25.3988C25.3988 3.37109 24.7812 3.37109 24.7812 4.48244V7.54041" stroke="#231F20" stroke-width="1.5" stroke-miterlimit="10"/>
<path d="M19.9922 5.1875V7.53761" stroke="#231F20" stroke-width="1.5" stroke-miterlimit="10"/>
<path d="M6.37382 36.0759C7.36987 36.0759 8.17733 35.2614 8.17733 34.2567C8.17733 33.252 7.36987 32.4375 6.37382 32.4375C5.37777 32.4375 4.57031 33.252 4.57031 34.2567C4.57031 35.2614 5.37777 36.0759 6.37382 36.0759Z" stroke="#231F20" stroke-width="1.5" stroke-miterlimit="10"/>
<path d="M19.991 36.0759C20.9871 36.0759 21.7945 35.2614 21.7945 34.2567C21.7945 33.252 20.9871 32.4375 19.991 32.4375C18.995 32.4375 18.1875 33.252 18.1875 34.2567C18.1875 35.2614 18.995 36.0759 19.991 36.0759Z" stroke="#231F20" stroke-width="1.5" stroke-miterlimit="10"/>
<path d="M8.17969 34.2552H14.7271C14.7271 34.2552 15.3446 34.2553 15.3446 33.1439V30.0859" stroke="#231F20" stroke-width="1.5" stroke-miterlimit="10"/>
<path d="M33.741 36.0759C34.7371 36.0759 35.5445 35.2614 35.5445 34.2567C35.5445 33.252 34.7371 32.4375 33.741 32.4375C32.745 32.4375 31.9375 33.252 31.9375 34.2567C31.9375 35.2614 32.745 36.0759 33.741 36.0759Z" stroke="#231F20" stroke-width="1.5" stroke-miterlimit="10"/>
<path d="M31.9462 34.2552H25.3988C25.3988 34.2552 24.7812 34.2553 24.7812 33.1439V30.0859" stroke="#231F20" stroke-width="1.5" stroke-miterlimit="10"/>
<path d="M19.9922 32.4439V30.0938" stroke="#231F20" stroke-width="1.5" stroke-miterlimit="10"/>
</svg>
