<svg width="22" height="22" viewBox="0 0 22 22" fill="none" xmlns="http://www.w3.org/2000/svg">
<path d="M3.79688 5.29688C3.79688 4.46845 4.46845 3.79688 5.29688 3.79688H14.6969C16.6299 3.79688 18.1969 5.36388 18.1969 7.29688V16.6969C18.1969 17.5253 17.5253 18.1969 16.6969 18.1969H5.29688C4.46845 18.1969 3.79688 17.5253 3.79688 16.6969V5.29688Z" stroke="#222222"/>
<path d="M7.70312 4.4V0" stroke="#222222"/>
<path d="M7.70312 22.0016V17.6016" stroke="#222222"/>
<path d="M14.2969 22.0016V17.6016" stroke="#222222"/>
<path d="M22.0016 14.2969L17.6016 14.2969" stroke="#222222"/>
<path d="M4.4 14.2969L0 14.2969" stroke="#222222"/>
<path d="M4.4 7.70313L0 7.70312" stroke="#222222"/>
<path d="M14.2969 1.10156V1.10156C16.7261 1.10156 17.9407 1.10156 18.8514 1.61158C19.495 1.97203 20.0264 2.50345 20.3869 3.14708C20.8969 4.05778 20.8969 5.27237 20.8969 7.70156V7.70156" stroke="#222222"/>
</svg>
