<svg width="58" height="19" viewBox="0 0 58 19" fill="none" xmlns="http://www.w3.org/2000/svg">
<path d="M0.743398 4.31087C2.41605 -0.583634 7.43979 0.0240448 7.43979 0.0240448L57.6192 0.0267086C57.6192 0.0267086 59.0017 10.2814 56.4983 14.7152C53.9949 19.149 50.3652 18.9994 50.3652 18.9994H0.743398C0.743398 18.9994 -0.929248 9.20537 0.743398 4.31087Z" fill="#393939"/>
<path d="M10.2315 13.0994C9.74384 13.0994 9.30824 13.0154 8.92472 12.8473C8.54356 12.6792 8.24171 12.446 8.01918 12.1477C7.79901 11.8471 7.68063 11.4991 7.66406 11.1037H8.77912C8.79332 11.3191 8.86553 11.5062 8.99574 11.6648C9.12831 11.821 9.30114 11.9418 9.5142 12.027C9.72727 12.1122 9.96402 12.1548 10.2244 12.1548C10.5109 12.1548 10.7642 12.1051 10.9844 12.0057C11.2069 11.9062 11.3809 11.7678 11.5064 11.5902C11.6319 11.4103 11.6946 11.2031 11.6946 10.9688C11.6946 10.7249 11.6319 10.5107 11.5064 10.326C11.3833 10.139 11.2022 9.99219 10.9631 9.88565C10.7263 9.77912 10.4399 9.72585 10.1037 9.72585H9.48935V8.83097H10.1037C10.3736 8.83097 10.6103 8.78243 10.8139 8.68537C11.0199 8.5883 11.1809 8.45336 11.2969 8.28054C11.4129 8.10535 11.4709 7.90057 11.4709 7.66619C11.4709 7.44129 11.42 7.24598 11.3182 7.08026C11.2188 6.91217 11.0767 6.78078 10.892 6.68608C10.7098 6.59138 10.4943 6.54403 10.2457 6.54403C10.009 6.54403 9.78764 6.58783 9.58168 6.67543C9.37808 6.76065 9.21236 6.88376 9.08452 7.04474C8.95668 7.20336 8.88802 7.39394 8.87855 7.61648H7.81676C7.8286 7.22348 7.9446 6.87784 8.16477 6.57955C8.38731 6.28125 8.68087 6.04806 9.04545 5.87997C9.41004 5.71188 9.81487 5.62784 10.2599 5.62784C10.7263 5.62784 11.1288 5.71899 11.4673 5.90128C11.8082 6.0812 12.071 6.3215 12.2557 6.62216C12.4427 6.92282 12.535 7.25189 12.5327 7.60938C12.535 8.01657 12.4214 8.36222 12.1918 8.64631C11.9645 8.9304 11.6615 9.12098 11.2827 9.21804V9.27486C11.7656 9.34825 12.1397 9.54001 12.4048 9.85014C12.6723 10.1603 12.8049 10.545 12.8026 11.0043C12.8049 11.4044 12.6937 11.763 12.4688 12.0803C12.2462 12.3975 11.942 12.6473 11.5561 12.8295C11.1702 13.0095 10.7287 13.0994 10.2315 13.0994ZM14.1591 13V7.54545H15.1854V8.41193H15.2422C15.3416 8.11837 15.5168 7.88755 15.7678 7.71946C16.0211 7.54901 16.3075 7.46378 16.6271 7.46378C16.6934 7.46378 16.7715 7.46615 16.8615 7.47088C16.9538 7.47562 17.026 7.48153 17.0781 7.48864V8.50426C17.0355 8.49242 16.9598 8.4794 16.8509 8.4652C16.742 8.44863 16.633 8.44034 16.5241 8.44034C16.2732 8.44034 16.0495 8.49361 15.853 8.60014C15.6589 8.70431 15.505 8.84991 15.3913 9.03693C15.2777 9.22159 15.2209 9.43229 15.2209 9.66903V13H14.1591ZM19.8436 13.1065C19.4032 13.1065 19.0102 12.9941 18.6646 12.7692C18.3213 12.5419 18.0514 12.2187 17.8549 11.7997C17.6608 11.3783 17.5637 10.8729 17.5637 10.2834C17.5637 9.69389 17.662 9.18963 17.8585 8.7706C18.0574 8.35156 18.3296 8.03078 18.6752 7.80824C19.0209 7.5857 19.4127 7.47443 19.8507 7.47443C20.1892 7.47443 20.4615 7.53125 20.6674 7.64489C20.8758 7.75616 21.0368 7.88636 21.1504 8.03551C21.2664 8.18466 21.3564 8.31605 21.4203 8.42969H21.4842V5.72727H22.546V13H21.5091V12.1513H21.4203C21.3564 12.2673 21.264 12.3999 21.1433 12.549C21.0249 12.6982 20.8616 12.8284 20.6532 12.9396C20.4449 13.0509 20.175 13.1065 19.8436 13.1065ZM20.0779 12.201C20.3833 12.201 20.6414 12.1205 20.8521 11.9595C21.0652 11.7962 21.2261 11.5701 21.335 11.2812C21.4463 10.9924 21.502 10.6562 21.502 10.2727C21.502 9.89394 21.4475 9.5625 21.3386 9.27841C21.2297 8.99432 21.0699 8.77296 20.8592 8.61435C20.6485 8.45573 20.3881 8.37642 20.0779 8.37642C19.7583 8.37642 19.492 8.45928 19.2789 8.625C19.0659 8.79072 18.9049 9.01681 18.796 9.30327C18.6895 9.58973 18.6362 9.91288 18.6362 10.2727C18.6362 10.6373 18.6906 10.9652 18.7995 11.2564C18.9084 11.5476 19.0694 11.7784 19.2825 11.9489C19.4979 12.117 19.7631 12.201 20.0779 12.201ZM26.7931 13V5.72727H29.3855C29.9513 5.72727 30.42 5.83026 30.7917 6.03622C31.1634 6.24219 31.4416 6.52391 31.6262 6.88139C31.8109 7.23651 31.9032 7.6366 31.9032 8.08168C31.9032 8.52912 31.8097 8.93158 31.6227 9.28906C31.438 9.64418 31.1587 9.9259 30.7846 10.1342C30.4129 10.3402 29.9454 10.4432 29.3819 10.4432H27.5993V9.51278H29.2825C29.64 9.51278 29.93 9.45123 30.1525 9.32812C30.3751 9.20265 30.5384 9.0322 30.6426 8.81676C30.7467 8.60133 30.7988 8.3563 30.7988 8.08168C30.7988 7.80705 30.7467 7.56321 30.6426 7.35014C30.5384 7.13707 30.3739 6.97017 30.149 6.84943C29.9264 6.72869 29.6329 6.66832 29.2683 6.66832H27.8904V13H26.7931ZM34.6429 13.1207C34.2973 13.1207 33.9848 13.0568 33.7054 12.929C33.4261 12.7988 33.2047 12.6106 33.0414 12.3643C32.8804 12.1181 32.7999 11.8163 32.7999 11.4588C32.7999 11.151 32.8591 10.8977 32.9775 10.6989C33.0958 10.5 33.2556 10.3426 33.4569 10.2266C33.6581 10.1106 33.883 10.023 34.1316 9.96378C34.3801 9.90459 34.6335 9.85961 34.8915 9.82884C35.2182 9.79096 35.4834 9.76018 35.687 9.73651C35.8906 9.71046 36.0385 9.66903 36.1309 9.61222C36.2232 9.5554 36.2694 9.46307 36.2694 9.33523V9.31037C36.2694 9.00024 36.1818 8.75994 36.0066 8.58949C35.8337 8.41903 35.5757 8.33381 35.2324 8.33381C34.8749 8.33381 34.5932 8.41312 34.3873 8.57173C34.1837 8.72798 34.0428 8.90199 33.9647 9.09375L32.9668 8.86648C33.0852 8.53504 33.258 8.26752 33.4853 8.06392C33.7149 7.85795 33.9789 7.70881 34.2772 7.61648C34.5755 7.52178 34.8891 7.47443 35.2182 7.47443C35.436 7.47443 35.6668 7.50047 35.9107 7.55256C36.1569 7.60227 36.3865 7.6946 36.5996 7.82955C36.815 7.96449 36.9914 8.15743 37.1287 8.40838C37.266 8.65696 37.3347 8.98011 37.3347 9.37784V13H36.2978V12.2543H36.2551C36.1865 12.3916 36.0835 12.5265 35.9462 12.6591C35.8089 12.7917 35.6325 12.9018 35.4171 12.9893C35.2016 13.0769 34.9436 13.1207 34.6429 13.1207ZM34.8738 12.2685C35.1673 12.2685 35.4183 12.2105 35.6266 12.0945C35.8373 11.9785 35.9971 11.8269 36.106 11.6399C36.2173 11.4505 36.2729 11.2481 36.2729 11.0327V10.3295C36.235 10.3674 36.1616 10.4029 36.0527 10.4361C35.9462 10.4669 35.8243 10.4941 35.687 10.5178C35.5497 10.5391 35.4159 10.5592 35.2857 10.5781C35.1555 10.5947 35.0466 10.6089 34.959 10.6207C34.753 10.6468 34.5648 10.6906 34.3944 10.7521C34.2263 10.8137 34.0913 10.9025 33.9895 11.0185C33.8901 11.1321 33.8404 11.2836 33.8404 11.473C33.8404 11.7358 33.9374 11.9347 34.1316 12.0696C34.3257 12.2022 34.5731 12.2685 34.8738 12.2685ZM38.7489 13V7.54545H39.7752V8.41193H39.832C39.9315 8.11837 40.1067 7.88755 40.3576 7.71946C40.6109 7.54901 40.8974 7.46378 41.217 7.46378C41.2833 7.46378 41.3614 7.46615 41.4513 7.47088C41.5437 7.47562 41.6159 7.48153 41.668 7.48864V8.50426C41.6254 8.49242 41.5496 8.4794 41.4407 8.4652C41.3318 8.44863 41.2229 8.44034 41.114 8.44034C40.863 8.44034 40.6393 8.49361 40.4428 8.60014C40.2487 8.70431 40.0948 8.84991 39.9812 9.03693C39.8675 9.22159 39.8107 9.43229 39.8107 9.66903V13H38.7489ZM45.4553 7.54545V8.39773H42.4759V7.54545H45.4553ZM43.2749 6.23864H44.3366V11.3984C44.3366 11.6044 44.3674 11.7595 44.429 11.8636C44.4905 11.9654 44.5698 12.0353 44.6669 12.0732C44.7663 12.1087 44.8741 12.1264 44.9901 12.1264C45.0753 12.1264 45.1499 12.1205 45.2138 12.1087C45.2777 12.0968 45.3274 12.0874 45.3629 12.0803L45.5547 12.9574C45.4931 12.9811 45.4055 13.0047 45.2919 13.0284C45.1783 13.0545 45.0362 13.0687 44.8658 13.071C44.5864 13.0758 44.326 13.026 44.0845 12.9219C43.843 12.8177 43.6477 12.6567 43.4986 12.4389C43.3494 12.2211 43.2749 11.9477 43.2749 11.6186V6.23864ZM47.301 15.0455C47.1423 15.0455 46.9979 15.0324 46.8677 15.0064C46.7375 14.9827 46.6404 14.9567 46.5765 14.9283L46.8322 14.0582C47.0263 14.1103 47.1992 14.1328 47.3507 14.1257C47.5022 14.1186 47.6359 14.0618 47.752 13.9553C47.8703 13.8487 47.9745 13.6747 48.0645 13.4332L48.1958 13.071L46.2001 7.54545H47.3365L48.7179 11.7784H48.7747L50.1561 7.54545H51.296L49.0481 13.728C48.944 14.0121 48.8114 14.2524 48.6504 14.4489C48.4894 14.6477 48.2976 14.7969 48.0751 14.8963C47.8526 14.9957 47.5945 15.0455 47.301 15.0455Z" fill="white"/>
</svg>
