<?xml version="1.0" standalone="no"?>
<!DOCTYPE svg PUBLIC "-//W3C//DTD SVG 20010904//EN"
 "http://www.w3.org/TR/2001/REC-SVG-20010904/DTD/svg10.dtd">
<svg version="1.0" xmlns="http://www.w3.org/2000/svg"
 width="1906.000000pt" height="1097.000000pt" viewBox="0 0 1906.000000 1097.000000"
 preserveAspectRatio="xMidYMid meet">

<g transform="translate(0.000000,1097.000000) scale(0.100000,-0.100000)"
fill="#000000" stroke="none">
<path d="M12476 6354 c-10 -25 -7 -572 3 -578 5 -4 16 -3 25 0 13 5 16 24 16
108 0 55 4 107 9 114 6 10 28 13 77 11 77 -3 154 8 154 22 0 5 5 9 11 9 11 0
39 25 39 35 0 4 7 14 16 22 13 13 15 33 12 96 -2 52 -8 82 -16 85 -6 2 -12 8
-12 14 0 13 -26 38 -39 38 -6 0 -11 5 -11 10 0 6 -11 10 -25 10 -14 0 -25 5
-25 10 0 6 -45 10 -114 10 -95 0 -115 -3 -120 -16z m232 -44 c2 -5 10 -10 18
-10 8 0 14 -4 14 -10 0 -5 5 -10 11 -10 24 0 38 -36 39 -98 0 -57 -3 -67 -29
-93 -20 -19 -40 -29 -60 -29 -17 0 -31 -4 -31 -10 0 -6 -30 -10 -69 -10 -54 0
-70 4 -75 16 -9 23 -7 259 2 268 10 11 176 -2 180 -14z"/>
<path d="M15410 6353 c-10 -12 -11 -18 -2 -21 9 -3 12 -72 12 -276 0 -150 3
-275 6 -278 3 -3 14 -4 25 -1 18 5 19 17 19 285 0 229 -3 282 -14 294 -18 18
-27 17 -46 -3z"/>
<path d="M13748 6303 c0 -16 -2 -40 -2 -55 -2 -33 -14 -47 -25 -29 -7 10 -13
9 -29 -5 -26 -22 -20 -34 18 -34 28 0 28 -1 33 -72 3 -40 5 -118 5 -173 0 -64
4 -101 11 -103 6 -2 11 -9 11 -16 0 -31 95 -58 129 -37 22 14 -10 41 -48 41
-17 0 -31 5 -31 11 0 6 -7 17 -15 25 -12 12 -15 44 -15 154 0 76 3 145 6 154
4 11 19 16 50 16 46 0 55 11 30 36 -18 17 -32 18 -40 2 -5 -10 -7 -10 -12 0
-3 6 -12 12 -20 12 -10 0 -14 14 -14 50 0 43 -3 50 -20 50 -15 0 -20 -7 -22
-27z"/>
<path d="M12973 6215 c-10 -10 -13 -70 -13 -224 0 -182 2 -210 16 -215 9 -3
20 -4 25 0 5 3 9 72 9 154 0 88 4 151 10 155 6 3 10 15 10 26 0 10 5 19 10 19
6 0 10 7 10 15 0 9 9 15 25 15 14 0 25 5 25 10 0 6 16 10 35 10 31 0 35 3 35
25 0 22 -4 25 -35 25 -19 0 -35 -4 -35 -10 0 -5 -11 -10 -25 -10 -16 0 -25 -6
-25 -15 0 -8 -7 -15 -15 -15 -8 0 -15 -6 -15 -12 0 -23 -20 16 -20 40 0 25 -9
28 -27 7z"/>
<path d="M13360 6220 c0 -5 -7 -10 -15 -10 -22 0 -105 -81 -105 -102 0 -10 -4
-18 -10 -18 -6 0 -10 -38 -10 -95 0 -57 4 -95 10 -95 6 0 10 -11 10 -25 0 -16
6 -25 15 -25 8 0 15 -5 15 -11 0 -11 25 -39 35 -39 4 0 13 -7 21 -15 21 -21
116 -20 162 2 47 22 92 68 92 93 0 11 5 20 10 20 6 0 10 38 10 95 0 57 -4 95
-10 95 -5 0 -10 8 -10 18 -1 20 -23 52 -36 52 -5 0 -18 11 -28 25 -10 14 -27
25 -37 25 -11 0 -19 5 -19 10 0 6 -22 10 -50 10 -27 0 -50 -4 -50 -10z m100
-50 c0 -5 9 -10 20 -10 13 0 22 -9 26 -25 3 -14 10 -25 15 -25 5 0 9 -7 9 -15
0 -8 5 -15 10 -15 6 0 10 -33 10 -80 0 -47 -4 -80 -10 -80 -5 0 -10 -9 -10
-20 0 -12 -14 -34 -30 -50 -27 -26 -38 -30 -90 -30 -52 0 -63 4 -90 30 -16 16
-30 38 -30 50 0 11 -4 20 -10 20 -6 0 -10 32 -10 75 0 43 4 75 10 75 6 0 10 9
10 20 0 11 4 20 9 20 5 0 12 11 15 25 4 16 13 25 26 25 11 0 20 5 20 10 0 6
23 10 50 10 28 0 50 -4 50 -10z"/>
<path d="M14130 6220 c0 -5 -9 -10 -20 -10 -20 0 -35 -9 -63 -37 -24 -24 -37
-42 -37 -52 0 -5 -6 -11 -12 -13 -9 -3 -13 -34 -13 -108 0 -74 4 -105 13 -107
6 -3 12 -13 12 -24 0 -10 5 -19 10 -19 6 0 10 -7 10 -15 0 -8 7 -15 15 -15 8
0 15 -4 15 -8 0 -5 15 -17 34 -27 26 -14 47 -17 102 -12 37 3 70 10 72 16 2 6
8 11 14 11 13 0 38 26 38 39 0 6 5 11 10 11 6 0 10 8 10 18 0 10 7 27 15 38
16 21 22 174 6 174 -5 0 -12 12 -15 26 -8 30 -80 104 -101 104 -8 0 -15 5 -15
10 0 6 -22 10 -50 10 -27 0 -50 -4 -50 -10z m90 -49 c0 -5 11 -12 24 -15 14
-3 28 -15 31 -26 3 -11 11 -20 16 -20 5 0 9 -11 9 -25 0 -14 5 -25 10 -25 6 0
10 -30 10 -70 0 -40 -4 -70 -10 -70 -5 0 -10 -6 -10 -14 0 -7 -15 -30 -33 -50
-31 -33 -37 -36 -92 -36 -51 0 -61 3 -86 30 -16 16 -29 34 -29 39 0 5 -7 14
-15 21 -11 9 -15 33 -15 90 0 60 3 79 15 84 8 3 15 15 15 26 0 11 5 20 10 20
6 0 10 7 10 15 0 9 9 15 25 15 14 0 25 5 25 10 0 6 20 10 45 10 25 0 45 -4 45
-9z"/>
<path d="M14610 6220 c0 -5 -11 -10 -25 -10 -16 0 -25 -6 -25 -15 0 -8 -9 -15
-20 -15 -11 0 -20 -4 -20 -9 0 -5 -6 -16 -13 -23 -43 -43 -64 -202 -32 -244 8
-10 15 -27 15 -36 0 -10 5 -18 10 -18 6 0 10 -7 10 -15 0 -8 5 -15 11 -15 7 0
20 -10 31 -22 26 -31 123 -38 179 -13 21 10 39 22 39 27 0 4 7 8 15 8 9 0 15
9 15 25 0 14 5 25 10 25 6 0 10 7 10 15 0 28 -38 15 -71 -25 -32 -38 -36 -40
-93 -40 -51 0 -62 4 -85 28 -51 54 -61 78 -61 151 0 66 21 131 43 131 4 0 7 7
7 15 0 9 9 15 25 15 14 0 25 5 25 10 0 6 20 10 45 10 25 0 45 -4 45 -10 0 -5
5 -10 11 -10 11 0 39 -25 39 -35 0 -14 30 -35 49 -35 14 0 21 6 21 20 0 11 -4
20 -10 20 -5 0 -10 5 -10 11 0 14 -25 39 -39 39 -6 0 -11 7 -11 15 0 9 -9 15
-25 15 -14 0 -25 5 -25 10 0 6 -20 10 -45 10 -25 0 -45 -4 -45 -10z"/>
<path d="M15060 6220 c0 -5 -6 -10 -14 -10 -27 0 -76 -35 -93 -67 -10 -18 -21
-33 -25 -33 -5 0 -8 -49 -8 -110 0 -67 4 -110 10 -110 6 0 10 -7 10 -15 0 -14
53 -75 65 -75 4 0 13 -7 21 -15 20 -20 123 -20 150 0 10 8 27 15 37 15 9 0 17
5 17 10 0 10 8 22 38 55 6 7 12 23 12 34 0 12 5 21 10 21 6 0 10 32 10 75 0
43 -4 75 -10 75 -5 0 -10 11 -10 25 0 29 -78 115 -104 115 -9 0 -16 5 -16 10
0 6 -22 10 -50 10 -27 0 -50 -4 -50 -10z m90 -50 c0 -5 6 -10 13 -10 20 0 67
-57 67 -80 0 -11 5 -20 10 -20 6 0 10 -27 10 -60 0 -33 -4 -60 -10 -60 -5 0
-10 -14 -10 -31 0 -27 -19 -59 -35 -59 -4 0 -13 -7 -21 -15 -10 -10 -35 -15
-70 -15 -48 0 -60 4 -85 29 -16 16 -29 34 -29 40 0 6 -4 11 -10 11 -6 0 -10
38 -10 95 0 57 4 95 10 95 6 0 10 7 10 15 0 19 36 55 55 55 8 0 15 5 15 10 0
6 20 10 45 10 25 0 45 -4 45 -10z"/>
<path d="M5650 6030 c0 -5 -11 -12 -25 -16 -14 -3 -25 -10 -25 -15 0 -5 -11
-9 -25 -9 -14 0 -25 -4 -25 -10 0 -5 -9 -10 -19 -10 -10 0 -21 -7 -25 -15 -3
-8 -15 -15 -26 -15 -11 0 -20 -4 -20 -10 0 -5 -11 -10 -25 -10 -14 0 -25 -4
-25 -10 0 -5 -11 -12 -25 -16 -14 -3 -25 -10 -25 -15 0 -5 -9 -9 -19 -9 -11 0
-21 -3 -23 -7 -4 -11 -67 -43 -84 -43 -8 0 -14 -4 -14 -10 0 -5 -11 -10 -25
-10 -14 0 -25 -4 -25 -10 0 -5 -11 -12 -25 -16 -14 -3 -25 -10 -25 -15 0 -5
-9 -9 -20 -9 -11 0 -20 -4 -20 -10 0 -5 -11 -10 -24 -10 -13 0 -26 -7 -30 -15
-3 -8 -15 -15 -26 -15 -11 0 -20 -4 -20 -10 0 -5 -11 -10 -25 -10 -14 0 -25
-4 -25 -10 0 -5 -11 -12 -25 -16 -14 -3 -25 -10 -25 -15 0 -5 -9 -9 -20 -9
-11 0 -20 -4 -20 -10 0 -5 -11 -10 -24 -10 -13 0 -26 -7 -30 -15 -3 -8 -15
-15 -26 -15 -11 0 -20 -4 -20 -10 0 -5 -11 -10 -25 -10 -14 0 -25 -4 -25 -9 0
-5 -11 -12 -25 -15 -14 -4 -25 -11 -25 -16 0 -6 -9 -10 -20 -10 -11 0 -20 -4
-20 -10 0 -5 -11 -10 -25 -10 -14 0 -25 -4 -25 -10 0 -5 -11 -12 -25 -16 -14
-3 -25 -10 -25 -15 0 -5 -11 -9 -25 -9 -14 0 -25 -4 -25 -10 0 -5 -11 -12 -25
-16 -14 -3 -25 -10 -25 -15 0 -5 -9 -9 -20 -9 -11 0 -20 -4 -20 -10 0 -5 -11
-10 -24 -10 -13 0 -26 -7 -30 -15 -3 -8 -15 -15 -26 -15 -11 0 -20 -4 -20 -10
0 -5 -11 -10 -25 -10 -14 0 -25 -3 -25 -7 0 -11 -58 -43 -76 -43 -8 0 -14 -4
-14 -10 0 -5 -11 -10 -25 -10 -14 0 -25 -4 -25 -9 0 -5 -11 -12 -25 -15 -31
-8 -35 -46 -5 -46 11 0 23 -7 26 -15 4 -8 17 -15 30 -15 13 0 24 -4 24 -10 0
-5 9 -10 20 -10 11 0 20 -4 20 -9 0 -5 11 -12 25 -15 14 -4 25 -11 25 -16 0
-6 11 -10 25 -10 14 0 25 -4 25 -9 0 -5 11 -12 25 -15 14 -4 25 -11 25 -16 0
-6 9 -10 20 -10 11 0 20 -4 20 -10 0 -5 11 -10 25 -10 14 0 25 -4 25 -9 0 -5
11 -12 25 -15 14 -4 25 -11 25 -16 0 -6 11 -10 25 -10 14 0 25 -4 25 -10 0 -5
9 -10 20 -10 11 0 23 -7 26 -15 4 -8 17 -15 30 -15 13 0 24 -4 24 -10 0 -5 9
-10 20 -10 11 0 20 -4 20 -9 0 -5 11 -12 25 -15 14 -4 25 -11 25 -16 0 -6 11
-10 25 -10 14 0 25 -4 25 -10 0 -5 9 -10 20 -10 11 0 23 -7 26 -15 4 -8 15
-15 25 -15 10 0 19 -4 19 -10 0 -5 11 -10 25 -10 14 0 25 -4 25 -9 0 -5 11
-12 25 -15 14 -4 25 -11 25 -16 0 -6 11 -10 25 -10 14 0 25 -4 25 -9 0 -5 11
-12 25 -15 14 -4 25 -11 25 -16 0 -6 9 -10 20 -10 11 0 20 -4 20 -10 0 -5 11
-10 25 -10 14 0 25 -4 25 -10 0 -5 11 -12 25 -16 14 -3 25 -10 25 -15 0 -5 11
-9 25 -9 14 0 25 -4 25 -10 0 -5 9 -10 20 -10 11 0 23 -7 26 -15 4 -8 15 -15
25 -15 10 0 19 -4 19 -10 0 -5 11 -10 25 -10 14 0 25 -4 25 -9 0 -5 11 -12 25
-15 14 -4 25 -11 25 -16 0 -6 11 -10 25 -10 14 0 25 -4 25 -10 0 -5 6 -10 14
-10 7 0 19 -7 26 -15 7 -8 21 -15 31 -15 11 0 19 -4 19 -10 0 -5 11 -10 25
-10 14 0 25 -4 25 -9 0 -5 11 -12 25 -15 14 -4 25 -11 25 -16 0 -6 11 -10 24
-10 13 0 27 -6 30 -12 5 -10 7 -10 12 0 3 6 17 12 30 12 13 0 24 4 24 10 0 5
11 12 25 16 14 3 25 10 25 15 0 5 9 9 19 9 11 0 21 3 23 8 4 10 67 42 84 42 8
0 14 5 14 10 0 6 9 10 20 10 11 0 23 7 26 15 4 8 17 15 30 15 13 0 24 5 24 10
0 6 9 10 20 10 11 0 20 4 20 9 0 5 11 12 25 15 14 4 25 11 25 16 0 6 11 10 25
10 14 0 25 5 25 10 0 6 6 10 14 10 18 0 76 32 76 43 0 4 11 7 25 7 14 0 25 4
25 9 0 5 11 12 25 15 14 4 25 11 25 16 0 6 11 10 25 10 14 0 25 5 25 10 0 6
11 10 25 10 14 0 25 4 25 10 0 5 11 12 25 16 14 3 25 10 25 15 0 5 9 9 20 9
11 0 20 4 20 9 0 5 11 12 25 15 14 4 25 11 25 16 0 6 11 10 25 10 14 0 25 5
25 10 0 6 6 10 14 10 18 0 76 32 76 43 0 4 11 7 25 7 14 0 25 4 25 9 0 5 11
12 25 15 14 4 25 11 25 16 0 6 11 10 25 10 14 0 25 5 25 10 0 6 7 10 15 10 9
0 33 11 55 25 22 14 46 25 55 25 8 0 15 5 15 10 0 6 11 10 25 10 16 0 25 6 25
15 0 9 9 15 25 15 14 0 25 5 25 10 0 6 9 10 20 10 11 0 20 4 20 9 0 5 11 12
25 15 14 4 25 11 25 16 0 6 11 10 25 10 14 0 25 4 25 9 0 5 11 12 25 15 14 4
25 11 25 16 0 6 11 10 25 10 18 0 25 5 25 20 0 14 -9 21 -35 26 -19 3 -35 10
-35 15 0 5 -11 9 -25 9 -14 0 -25 5 -25 10 0 6 -6 10 -14 10 -7 0 -19 7 -26
15 -7 8 -21 15 -31 15 -11 0 -19 5 -19 10 0 6 -11 10 -25 10 -14 0 -25 4 -25
9 0 5 -11 12 -25 15 -14 4 -25 11 -25 16 0 6 -7 10 -15 10 -8 0 -15 5 -15 10
0 6 -11 10 -25 10 -14 0 -25 4 -25 10 0 5 -11 12 -25 16 -14 3 -25 10 -25 15
0 5 -9 9 -20 9 -11 0 -20 5 -20 10 0 6 -11 10 -25 10 -14 0 -25 4 -25 10 0 5
-11 12 -25 16 -14 3 -25 10 -25 15 0 5 -9 9 -21 9 -11 0 -27 7 -35 15 -9 8
-24 15 -35 15 -10 0 -19 5 -19 10 0 6 -11 10 -25 10 -14 0 -25 4 -25 9 0 5
-11 12 -25 15 -14 4 -25 11 -25 16 0 6 -11 10 -25 10 -14 0 -25 5 -25 10 0 6
-7 10 -15 10 -8 0 -15 4 -15 10 0 5 -11 12 -25 16 -14 3 -25 10 -25 15 0 5 -9
9 -20 9 -11 0 -20 5 -20 10 0 6 -11 10 -25 10 -14 0 -25 4 -25 10 0 5 -11 12
-25 16 -14 3 -25 10 -25 15 0 5 -11 9 -25 9 -14 0 -25 4 -25 8 0 5 -20 17 -45
28 -25 10 -45 22 -45 26 0 4 -11 8 -24 8 -14 0 -31 7 -40 15 -8 8 -22 15 -30
15 -9 0 -16 5 -16 10 0 6 -5 10 -12 10 -18 0 -88 33 -88 42 0 4 -11 8 -25 8
-14 0 -25 5 -25 10 0 6 -7 10 -15 10 -8 0 -15 4 -15 10 0 5 -11 12 -25 16 -14
3 -25 10 -25 15 0 5 -6 9 -14 9 -18 0 -76 32 -76 43 0 4 -27 7 -60 7 -33 0
-60 -4 -60 -10z m103 -137 c9 -3 17 -9 17 -14 0 -5 7 -9 15 -9 8 0 15 -4 15
-10 0 -5 6 -10 14 -10 18 0 76 -32 76 -42 0 -5 16 -8 35 -8 19 0 35 -3 35 -7
0 -10 58 -43 75 -43 7 0 15 -3 17 -7 4 -11 67 -43 84 -43 8 0 14 -4 14 -10 0
-5 11 -10 25 -10 14 0 25 -5 25 -10 0 -6 18 -18 40 -27 22 -10 40 -21 40 -25
0 -5 9 -8 20 -8 11 0 20 -4 20 -9 0 -5 11 -12 25 -15 14 -4 25 -11 25 -16 0
-6 11 -10 25 -10 14 0 25 -4 25 -10 0 -5 8 -10 18 -10 10 0 27 -7 38 -15 10
-8 27 -15 36 -15 9 0 18 -3 20 -7 4 -11 67 -43 84 -43 8 0 14 -4 14 -10 0 -5
11 -10 25 -10 14 0 25 -3 25 -7 0 -11 58 -43 76 -43 8 0 14 -4 14 -9 0 -5 10
-11 23 -15 12 -3 32 -14 44 -26 12 -11 31 -20 43 -20 11 0 20 -4 20 -10 0 -5
8 -10 18 -10 9 0 26 -7 36 -15 11 -8 28 -15 38 -15 10 0 18 -4 18 -8 0 -4 23
-16 50 -27 34 -13 50 -25 50 -37 0 -11 -8 -18 -20 -18 -11 0 -23 -7 -26 -15
-4 -8 -17 -15 -30 -15 -13 0 -24 -4 -24 -10 0 -5 -9 -10 -20 -10 -11 0 -20 -4
-20 -9 0 -5 -11 -12 -25 -15 -14 -4 -25 -11 -25 -16 0 -6 -11 -10 -25 -10 -14
0 -25 -4 -25 -10 0 -5 -9 -10 -20 -10 -11 0 -23 -7 -26 -15 -4 -8 -17 -15 -30
-15 -13 0 -24 -4 -24 -10 0 -5 -9 -10 -20 -10 -11 0 -20 -4 -20 -9 0 -5 -11
-12 -25 -15 -14 -4 -25 -11 -25 -16 0 -6 -11 -10 -25 -10 -14 0 -25 -4 -25
-10 0 -5 -9 -10 -20 -10 -11 0 -23 -7 -26 -15 -4 -8 -17 -15 -30 -15 -13 0
-24 -4 -24 -10 0 -5 -9 -10 -20 -10 -11 0 -20 -4 -20 -9 0 -5 -11 -12 -25 -15
-14 -4 -25 -11 -25 -16 0 -6 -11 -10 -25 -10 -14 0 -25 -4 -25 -10 0 -5 -6
-10 -14 -10 -18 0 -76 -32 -76 -42 0 -5 -11 -8 -25 -8 -14 0 -25 -4 -25 -9 0
-5 -11 -12 -25 -15 -14 -4 -25 -11 -25 -16 0 -6 -11 -10 -25 -10 -14 0 -25 -4
-25 -10 0 -5 -8 -10 -19 -10 -10 0 -24 -7 -31 -15 -7 -8 -19 -15 -26 -15 -8 0
-14 -4 -14 -10 0 -5 -11 -10 -25 -10 -14 0 -25 -4 -25 -9 0 -5 -11 -12 -25
-15 -14 -4 -25 -11 -25 -16 0 -6 -11 -10 -25 -10 -14 0 -25 -4 -25 -10 0 -5
-6 -10 -14 -10 -18 0 -76 -32 -76 -42 0 -5 -11 -8 -25 -8 -14 0 -25 -4 -25
-10 0 -5 -11 -10 -25 -10 -16 0 -25 -6 -25 -16 0 -9 -3 -14 -7 -12 -49 24 -63
32 -63 40 0 4 -11 8 -25 8 -14 0 -25 5 -25 10 0 6 -9 10 -20 10 -11 0 -23 7
-26 15 -4 8 -17 15 -30 15 -13 0 -24 5 -24 10 0 6 -9 10 -20 10 -11 0 -20 4
-20 9 0 5 -11 12 -25 15 -14 4 -25 11 -25 16 0 6 -11 10 -25 10 -14 0 -25 5
-25 10 0 6 -6 10 -14 10 -17 0 -80 32 -84 43 -2 4 -12 7 -23 7 -10 0 -19 4
-19 9 0 5 -11 12 -25 15 -14 4 -25 11 -25 16 0 6 -11 10 -25 10 -14 0 -25 5
-25 10 0 6 -8 10 -19 10 -10 0 -24 7 -31 15 -7 8 -19 15 -26 15 -8 0 -14 5
-14 10 0 6 -11 10 -25 10 -14 0 -25 4 -25 9 0 5 -11 12 -25 15 -14 4 -25 11
-25 16 0 6 -11 10 -25 10 -14 0 -25 5 -25 10 0 6 -8 10 -19 10 -10 0 -24 7
-31 15 -7 8 -21 15 -31 15 -11 0 -19 5 -19 10 0 6 -9 10 -20 10 -11 0 -20 4
-20 9 0 5 -11 12 -25 15 -14 4 -25 11 -25 16 0 6 -11 10 -25 10 -14 0 -25 5
-25 10 0 6 -6 10 -14 10 -18 0 -76 32 -76 43 0 4 -11 7 -25 7 -14 0 -25 4 -25
9 0 5 -11 12 -25 15 -14 4 -25 11 -25 16 0 6 -11 10 -25 10 -14 0 -25 5 -25
10 0 6 -9 10 -20 10 -11 0 -20 4 -20 9 0 5 -11 12 -25 15 -16 4 -25 13 -25 26
0 13 9 22 25 26 14 3 25 10 25 15 0 5 9 9 20 9 11 0 20 5 20 10 0 6 11 10 25
10 14 0 25 4 25 10 0 5 11 12 25 16 14 3 25 10 25 15 0 5 11 9 25 9 14 0 25 5
25 10 0 6 9 10 20 10 11 0 23 7 26 15 4 8 15 15 25 15 10 0 19 5 19 10 0 6 11
10 25 10 14 0 25 4 25 10 0 5 11 12 25 16 14 3 25 10 25 15 0 5 11 9 25 9 14
0 25 5 25 10 0 6 6 10 14 10 7 0 19 7 26 15 7 8 21 15 31 15 11 0 19 5 19 10
0 6 11 10 25 10 14 0 25 4 25 10 0 5 11 12 25 16 14 3 25 10 25 15 0 5 11 9
25 9 14 0 25 5 25 10 0 6 9 10 20 10 11 0 23 7 26 15 4 8 15 15 25 15 10 0 19
5 19 10 0 6 11 10 25 10 14 0 25 4 25 9 0 5 11 12 25 15 14 4 25 11 25 16 0 6
11 10 25 10 14 0 25 3 25 8 0 10 58 42 76 42 8 0 14 5 14 10 0 6 11 10 25 10
14 0 25 4 25 10 0 5 11 12 25 16 14 3 25 10 25 15 0 5 11 9 25 9 14 0 25 5 25
10 0 6 8 10 19 10 10 0 24 7 31 15 7 8 19 15 26 15 8 0 14 5 14 10 0 6 11 10
25 10 14 0 25 4 25 9 0 13 52 31 70 24 8 -3 23 -8 33 -10z"/>
<path d="M9980 5551 c0 -5 -30 -11 -67 -13 -39 -2 -68 -9 -71 -16 -2 -7 -19
-12 -38 -12 -19 0 -34 -4 -34 -10 0 -5 -9 -10 -20 -10 -11 0 -23 -7 -26 -15
-4 -8 -15 -15 -25 -15 -10 0 -19 -4 -19 -10 0 -5 -4 -10 -10 -10 -10 0 -90
-76 -90 -85 0 -6 -11 -20 -37 -50 -7 -7 -13 -18 -13 -24 0 -6 -4 -11 -10 -11
-5 0 -10 -10 -10 -22 -1 -13 -7 -34 -15 -48 -20 -36 -19 -93 3 -105 10 -6 71
-8 152 -5 74 3 138 1 141 -3 12 -17 49 17 49 46 0 38 82 117 122 117 15 0 28
5 28 10 0 6 25 10 55 10 30 0 55 -4 55 -10 0 -5 13 -10 28 -10 31 0 102 -59
102 -85 0 -8 5 -15 10 -15 17 0 11 -96 -7 -129 -10 -17 -21 -31 -25 -31 -5 0
-8 -7 -8 -15 0 -8 -9 -15 -20 -15 -11 0 -20 -3 -20 -8 0 -17 -83 -35 -182 -39
l-108 -4 0 -130 0 -129 130 0 c72 0 130 -4 130 -8 0 -4 15 -13 34 -20 40 -15
86 -55 86 -77 0 -8 5 -15 10 -15 6 0 10 -27 10 -60 0 -33 -4 -60 -10 -60 -5 0
-10 -8 -10 -17 0 -19 -66 -83 -86 -83 -8 0 -14 -4 -14 -10 0 -6 -38 -10 -95
-10 -57 0 -95 4 -95 10 0 6 -11 10 -25 10 -13 0 -35 11 -49 25 -14 14 -30 25
-36 25 -5 0 -10 11 -10 25 0 14 -4 25 -10 25 -5 0 -10 11 -10 25 l0 25 -180 0
-180 0 0 -60 c0 -33 4 -60 10 -60 6 0 10 -9 10 -21 0 -23 30 -79 42 -79 4 0 8
-9 8 -20 0 -11 5 -20 10 -20 6 0 10 -7 10 -15 0 -8 5 -15 11 -15 14 0 39 -25
39 -39 0 -6 7 -11 15 -11 8 0 15 -4 15 -10 0 -5 9 -10 20 -10 11 0 20 -4 20
-10 0 -5 11 -12 25 -16 14 -3 25 -10 25 -15 0 -5 11 -9 25 -9 14 0 25 -4 25
-10 0 -5 10 -10 23 -10 13 0 32 -7 43 -15 27 -21 397 -21 434 0 14 8 35 14 48
15 12 0 22 5 22 10 0 6 11 10 25 10 14 0 25 4 25 9 0 5 11 12 25 15 14 4 25
11 25 16 0 6 9 10 20 10 11 0 20 5 20 10 0 6 7 10 15 10 8 0 15 7 15 15 0 8 5
15 11 15 11 0 39 25 39 35 0 4 6 13 13 20 31 36 37 46 37 65 0 11 5 20 10 20
6 0 10 8 10 19 0 10 7 36 16 57 18 44 15 155 -4 162 -7 2 -12 19 -12 38 0 19
-4 34 -10 34 -5 0 -10 5 -10 10 0 10 -8 22 -37 55 -7 7 -13 18 -13 24 0 6 -7
11 -15 11 -8 0 -15 5 -15 10 0 6 -9 10 -20 10 -11 0 -20 4 -20 10 0 5 -11 12
-25 16 -14 3 -25 10 -25 15 0 5 -21 9 -46 9 -44 0 -74 16 -74 39 0 6 16 11 35
11 19 0 35 5 35 10 0 6 11 10 25 10 14 0 25 4 25 9 0 5 8 12 19 16 32 10 101
81 101 103 0 12 4 22 8 22 5 0 15 25 22 55 11 44 11 68 0 130 -7 41 -17 75
-21 75 -5 0 -9 11 -9 25 0 14 -4 25 -10 25 -5 0 -10 7 -10 15 0 15 -101 125
-114 125 -4 0 -14 6 -21 13 -36 31 -46 37 -65 37 -11 0 -20 5 -20 10 0 6 -10
10 -22 10 -13 1 -34 7 -48 15 -14 8 -46 14 -72 15 -27 0 -48 5 -48 10 0 6 -32
10 -75 10 -41 0 -75 -4 -75 -9z"/>
<path d="M8458 5533 l-168 -3 0 -760 c0 -499 3 -760 10 -761 6 -1 30 -1 55 -1
25 0 245 0 490 1 l445 1 0 150 0 150 -320 0 -320 0 0 593 c0 555 -3 640 -19
635 -3 -1 -81 -4 -173 -5z"/>
<path d="M11307 5523 c-4 -3 -7 -17 -7 -30 0 -12 -4 -23 -10 -23 -5 0 -10 -11
-10 -24 0 -13 -7 -37 -15 -52 -8 -16 -15 -39 -15 -51 0 -13 -4 -23 -10 -23 -5
0 -10 -11 -10 -25 0 -14 -4 -25 -10 -25 -5 0 -10 -14 -10 -31 0 -17 -7 -37
-15 -45 -8 -9 -15 -26 -15 -40 0 -13 -4 -24 -10 -24 -5 0 -10 -18 -10 -39 0
-22 -3 -41 -7 -43 -10 -4 -43 -100 -43 -122 0 -9 -4 -16 -10 -16 -5 0 -10 -15
-10 -34 0 -19 -7 -41 -15 -50 -8 -8 -15 -28 -15 -45 0 -17 -4 -31 -10 -31 -5
0 -10 -11 -10 -24 0 -14 -4 -28 -10 -31 -5 -3 -10 -14 -10 -23 0 -9 -7 -30
-15 -46 -8 -15 -15 -39 -15 -52 0 -13 -4 -24 -10 -24 -5 0 -10 -14 -10 -31 0
-17 -7 -37 -15 -45 -8 -9 -15 -26 -15 -40 0 -13 -4 -24 -10 -24 -5 0 -10 -16
-10 -35 0 -19 -4 -35 -10 -35 -5 0 -10 -10 -10 -23 0 -13 -7 -32 -15 -43 -8
-10 -15 -34 -15 -51 0 -18 -4 -33 -10 -33 -5 0 -10 -12 -10 -27 0 -16 -7 -37
-15 -47 -8 -11 -15 -30 -15 -43 0 -13 -4 -23 -10 -23 -15 0 -12 -40 3 -40 6
-1 92 -2 189 -3 l177 -2 15 27 c9 14 16 36 16 47 0 12 5 21 10 21 6 0 10 16
10 35 0 19 4 35 9 35 5 0 12 18 16 40 4 22 11 42 16 46 5 3 9 16 9 30 0 52 9
54 275 54 271 0 275 -1 275 -59 0 -17 5 -31 10 -31 6 0 10 -13 10 -29 0 -16 7
-36 15 -45 8 -8 15 -28 15 -45 0 -17 5 -31 10 -31 6 0 10 -14 10 -31 0 -57 12
-61 205 -60 96 0 182 0 190 1 16 0 21 40 5 40 -5 0 -12 16 -16 35 -3 19 -10
35 -15 35 -5 0 -9 16 -9 35 0 19 -4 35 -9 35 -5 0 -11 18 -15 40 -3 22 -11 40
-16 40 -6 0 -10 16 -10 35 0 19 -4 35 -10 35 -5 0 -10 16 -10 35 0 19 -4 35
-10 35 -5 0 -12 16 -16 35 -3 19 -10 35 -15 35 -5 0 -9 16 -9 35 0 19 -4 35
-10 35 -5 0 -10 10 -10 23 0 13 -7 32 -15 43 -8 10 -15 31 -15 47 0 15 -4 27
-10 27 -5 0 -10 13 -10 28 0 16 -3 32 -7 36 -11 11 -43 99 -43 119 0 9 -4 17
-10 17 -5 0 -10 15 -10 33 0 17 -7 41 -15 51 -8 11 -15 30 -15 43 0 13 -4 23
-10 23 -5 0 -10 15 -10 33 0 19 -3 37 -7 41 -11 11 -43 99 -43 119 0 9 -4 17
-10 17 -5 0 -10 16 -10 35 0 19 -4 35 -10 35 -5 0 -13 18 -16 40 -4 22 -10 40
-15 40 -5 0 -9 16 -9 35 0 19 -4 35 -9 35 -5 0 -11 14 -14 30 l-6 30 -244 0
c-134 0 -247 -3 -250 -7z m263 -415 c0 -10 5 -18 10 -18 6 0 10 -18 10 -40 0
-22 5 -40 10 -40 6 0 10 -10 10 -23 0 -13 7 -32 15 -43 8 -10 15 -31 15 -46 0
-16 5 -28 10 -28 6 0 10 -18 10 -39 0 -22 5 -41 11 -43 5 -2 13 -22 16 -46 3
-23 10 -42 14 -42 5 0 9 -23 9 -50 l0 -51 -156 3 c-141 3 -158 5 -168 22 -8
14 -8 20 2 23 6 3 12 20 12 39 0 19 4 34 9 34 5 0 11 12 14 28 14 64 32 122
39 122 5 0 8 16 8 35 0 19 5 35 10 35 6 0 10 12 10 28 0 15 7 36 15 46 8 11
15 32 15 48 0 15 4 28 9 28 5 0 11 15 15 33 5 25 9 29 16 17 5 -8 10 -23 10
-32z"/>
<path d="M4165 4721 c-3 -12 -11 -21 -16 -21 -5 0 -9 -11 -9 -24 0 -13 -6 -27
-12 -30 -10 -5 -10 -7 0 -12 7 -3 19 -12 26 -20 8 -8 24 -14 35 -14 12 0 21
-4 21 -9 0 -5 11 -12 25 -15 14 -4 25 -11 25 -16 0 -6 9 -10 20 -10 11 0 20
-4 20 -10 0 -5 11 -10 25 -10 14 0 25 -4 25 -10 0 -5 7 -10 15 -10 8 0 15 -4
15 -10 0 -5 11 -12 25 -16 14 -3 25 -10 25 -15 0 -5 11 -9 25 -9 14 0 25 -4
25 -10 0 -5 11 -12 25 -16 14 -3 25 -10 25 -15 0 -5 11 -9 25 -9 14 0 25 -4
25 -10 0 -5 9 -10 19 -10 11 0 26 -7 35 -15 8 -8 24 -15 35 -15 12 0 21 -4 21
-9 0 -5 11 -12 25 -15 14 -4 25 -11 25 -16 0 -6 9 -10 20 -10 11 0 20 -4 20
-10 0 -5 11 -10 25 -10 14 0 25 -4 25 -9 0 -5 11 -12 25 -15 14 -4 25 -11 25
-16 0 -6 11 -10 25 -10 14 0 25 -4 25 -10 0 -5 7 -10 15 -10 8 0 15 -4 15 -10
0 -5 9 -10 20 -10 11 0 23 -7 26 -15 4 -8 17 -15 30 -15 13 0 24 -4 24 -10 0
-5 9 -10 20 -10 11 0 20 -4 20 -10 0 -5 11 -12 25 -16 14 -3 25 -10 25 -15 0
-5 11 -9 25 -9 14 0 25 -4 25 -10 0 -5 9 -10 19 -10 11 0 26 -7 35 -15 8 -8
24 -15 35 -15 12 0 21 -4 21 -9 0 -5 11 -12 25 -15 14 -4 25 -11 25 -16 0 -6
11 -10 25 -10 14 0 25 -4 25 -8 0 -4 20 -16 45 -26 25 -11 45 -23 45 -28 0 -4
11 -8 25 -8 14 0 25 -4 25 -10 0 -5 7 -10 15 -10 8 0 15 -4 15 -10 0 -5 11
-12 25 -16 14 -3 25 -10 25 -15 0 -14 48 -11 53 4 4 10 6 10 6 0 1 -15 31 -18
31 -3 0 6 11 10 25 10 16 0 25 6 25 15 0 9 9 15 25 15 14 0 25 5 25 10 0 6 9
10 19 10 11 0 21 3 23 8 4 10 67 42 84 42 8 0 14 5 14 10 0 6 11 10 25 10 14
0 25 4 25 10 0 5 11 12 25 16 14 3 25 10 25 15 0 5 7 9 15 9 9 0 33 11 55 25
22 14 46 25 55 25 8 0 15 5 15 10 0 6 11 10 25 10 14 0 25 4 25 10 0 5 11 12
25 16 14 3 25 10 25 15 0 5 11 9 25 9 14 0 25 5 25 10 0 6 9 10 20 10 11 0 23
7 26 15 4 8 15 15 25 15 10 0 19 5 19 10 0 6 11 10 25 10 14 0 25 4 25 10 0 5
11 12 25 16 14 3 25 10 25 15 0 5 11 9 25 9 14 0 25 5 25 10 0 6 9 10 19 10
10 0 21 7 25 15 3 8 15 15 26 15 11 0 20 5 20 10 0 6 11 10 24 10 14 0 31 7
40 15 8 8 24 15 35 15 12 0 21 5 21 10 0 6 9 10 20 10 11 0 20 4 20 9 0 5 11
12 25 15 14 4 25 11 25 16 0 6 11 10 25 10 14 0 25 4 25 9 0 5 11 12 25 15 14
4 25 11 25 16 0 6 9 10 20 10 11 0 20 5 20 10 0 6 11 10 25 10 14 0 25 4 25 9
0 5 11 12 25 15 14 4 25 11 25 16 0 6 11 10 25 10 14 0 25 4 25 9 0 5 11 12
25 15 16 4 25 13 25 26 0 11 -4 20 -8 20 -4 0 -14 16 -21 35 -10 29 -17 35
-42 35 -16 0 -29 -4 -29 -10 0 -5 -9 -10 -20 -10 -11 0 -20 -4 -20 -9 0 -5
-11 -12 -25 -15 -14 -4 -25 -11 -25 -16 0 -6 -11 -10 -24 -10 -13 0 -26 -3
-28 -7 -4 -11 -75 -43 -93 -43 -7 0 -15 -3 -17 -7 -4 -11 -67 -43 -84 -43 -8
0 -14 -4 -14 -10 0 -5 -7 -10 -15 -10 -8 0 -15 -4 -15 -10 0 -5 -6 -10 -14
-10 -17 0 -80 -32 -84 -42 -2 -5 -10 -8 -17 -8 -17 0 -75 -33 -75 -42 0 -5
-16 -8 -35 -8 -19 0 -35 -4 -35 -9 0 -5 -11 -12 -25 -15 -14 -4 -25 -11 -25
-16 0 -6 -9 -10 -20 -10 -11 0 -20 -4 -20 -10 0 -5 -8 -10 -19 -10 -10 0 -24
-7 -31 -15 -7 -8 -21 -15 -31 -15 -11 0 -19 -4 -19 -10 0 -5 -11 -10 -25 -10
-14 0 -25 -4 -25 -9 0 -5 -11 -12 -25 -15 -14 -4 -25 -11 -25 -16 0 -6 -11
-10 -25 -10 -14 0 -25 -4 -25 -10 0 -5 -9 -10 -19 -10 -10 0 -21 -7 -25 -15
-3 -8 -15 -15 -26 -15 -11 0 -20 -4 -20 -10 0 -5 -11 -10 -25 -10 -14 0 -25
-4 -25 -9 0 -5 -11 -12 -25 -15 -14 -4 -25 -11 -25 -16 0 -6 -9 -10 -20 -10
-11 0 -20 -4 -20 -10 0 -5 -11 -10 -25 -10 -14 0 -25 -4 -25 -9 0 -5 -11 -12
-25 -15 -14 -4 -25 -11 -25 -16 0 -6 -11 -10 -25 -10 -14 0 -25 -4 -25 -9 0
-5 -11 -12 -25 -15 -14 -4 -25 -11 -25 -16 0 -6 -16 -10 -35 -10 -19 0 -35 4
-35 10 0 5 -11 12 -25 16 -14 3 -25 10 -25 15 0 5 -11 9 -24 9 -13 0 -40 11
-60 25 -20 14 -45 25 -56 25 -10 0 -20 3 -22 8 -4 10 -67 42 -84 42 -8 0 -14
5 -14 10 0 6 -9 10 -21 10 -11 0 -27 6 -34 13 -36 31 -46 37 -65 37 -11 0 -20
5 -20 10 0 6 -7 10 -15 10 -8 0 -15 4 -15 10 0 5 -11 12 -25 16 -14 3 -25 10
-25 15 0 5 -11 9 -25 9 -14 0 -25 5 -25 10 0 6 -8 10 -19 10 -10 0 -24 7 -31
15 -7 8 -23 15 -36 15 -13 0 -24 5 -24 10 0 6 -5 10 -11 10 -6 0 -17 7 -25 15
-9 8 -26 15 -40 15 -13 0 -24 5 -24 10 0 6 -11 10 -25 10 -14 0 -25 3 -25 8 0
10 -58 42 -76 42 -8 0 -14 4 -14 9 0 5 -11 12 -25 15 -14 4 -25 11 -25 16 0 6
-11 10 -25 10 -14 0 -25 5 -25 10 0 6 -9 10 -20 10 -11 0 -20 3 -20 8 0 7 -30
25 -62 38 -10 3 -18 10 -18 15 0 5 -11 9 -25 9 -14 0 -25 4 -25 9 0 5 -16 12
-35 15 -19 4 -35 11 -35 16 0 6 -9 10 -20 10 -11 0 -20 4 -20 9 0 5 -11 12
-25 15 -14 4 -25 11 -25 16 0 6 -11 10 -25 10 -14 0 -25 4 -25 9 0 5 -8 11
-17 14 -10 2 -25 8 -35 12 -11 4 -18 0 -23 -14z"/>
<path d="M4164 4195 c-3 -14 -10 -25 -15 -25 -5 0 -9 -9 -9 -20 0 -11 -4 -20
-10 -20 -26 0 -5 -28 35 -45 25 -11 45 -23 45 -27 0 -5 11 -8 25 -8 14 0 25
-4 25 -10 0 -5 6 -10 14 -10 7 0 19 -7 26 -15 7 -8 21 -15 30 -15 10 0 20 -3
22 -7 4 -11 67 -43 84 -43 8 0 14 -4 14 -10 0 -5 11 -10 25 -10 14 0 25 -4 25
-10 0 -5 7 -10 15 -10 8 0 15 -4 15 -10 0 -5 11 -12 25 -16 14 -3 25 -10 25
-15 0 -5 9 -9 20 -9 11 0 20 -4 20 -10 0 -5 6 -10 14 -10 17 0 80 -32 84 -42
2 -5 14 -8 27 -8 12 0 28 -7 35 -15 7 -8 21 -15 31 -15 11 0 19 -4 19 -10 0
-5 11 -10 25 -10 14 0 25 -4 25 -10 0 -5 11 -12 25 -16 14 -3 25 -10 25 -15 0
-5 11 -9 25 -9 14 0 25 -4 25 -10 0 -5 6 -10 14 -10 7 0 19 -7 26 -15 7 -8 21
-15 31 -15 11 0 19 -4 19 -10 0 -5 9 -10 20 -10 12 0 31 -9 43 -20 12 -12 32
-23 44 -26 13 -4 23 -10 23 -15 0 -5 6 -9 14 -9 18 0 76 -32 76 -42 0 -5 16
-8 35 -8 19 0 35 -4 35 -9 0 -5 11 -12 25 -15 14 -4 25 -11 25 -16 0 -6 11
-10 25 -10 14 0 25 -4 25 -10 0 -5 6 -10 14 -10 7 0 19 -7 26 -15 7 -8 21 -15
31 -15 11 0 19 -4 19 -10 0 -5 11 -10 24 -10 13 0 26 -6 29 -12 5 -17 159 -17
165 0 2 7 15 12 28 12 13 0 24 5 24 10 0 6 6 10 14 10 7 0 19 7 26 15 7 8 21
15 31 15 11 0 19 5 19 10 0 6 11 10 25 10 14 0 25 4 25 10 0 5 11 12 25 16 14
3 25 10 25 15 0 5 11 9 25 9 14 0 25 5 25 10 0 6 6 10 14 10 17 0 80 32 84 43
2 4 12 7 23 7 10 0 19 4 19 10 0 5 11 12 25 16 14 3 25 10 25 15 0 5 11 9 25
9 14 0 25 5 25 10 0 6 8 10 19 10 10 0 24 7 31 15 7 8 19 15 26 15 8 0 14 5
14 10 0 6 11 10 25 10 14 0 25 4 25 9 0 5 11 12 25 15 14 4 25 11 25 16 0 6
11 10 25 10 14 0 25 5 25 10 0 6 8 10 18 10 9 0 26 7 36 15 11 8 28 15 38 15
10 0 18 4 18 8 0 4 23 16 50 27 28 11 50 23 50 27 0 4 11 8 25 8 14 0 25 5 25
10 0 6 6 10 14 10 7 0 19 7 26 15 7 8 21 15 31 15 11 0 19 4 19 8 0 4 23 16
50 27 28 11 50 23 50 27 0 4 9 8 20 8 11 0 20 5 20 10 0 6 8 10 19 10 10 0 24
7 31 15 7 8 21 15 31 15 11 0 19 5 19 10 0 6 11 10 25 10 14 0 25 4 25 10 0 5
11 12 25 16 24 6 37 44 16 44 -5 0 -12 11 -15 25 -4 14 -11 25 -16 25 -6 0
-10 7 -10 16 0 11 -6 14 -22 8 -13 -3 -24 -11 -26 -15 -2 -5 -12 -9 -23 -9
-10 0 -19 -4 -19 -10 0 -5 -11 -10 -24 -10 -13 0 -26 -7 -30 -15 -3 -8 -15
-15 -26 -15 -11 0 -20 -4 -20 -10 0 -5 -11 -10 -25 -10 -14 0 -25 -4 -25 -8 0
-9 -70 -42 -88 -42 -7 0 -12 -4 -12 -10 0 -5 -7 -10 -16 -10 -8 0 -22 -7 -30
-15 -9 -8 -26 -15 -40 -15 -13 0 -24 -4 -24 -10 0 -5 -6 -10 -14 -10 -7 0 -30
-11 -50 -25 -20 -14 -43 -25 -51 -25 -8 0 -15 -4 -15 -10 0 -5 -9 -10 -20 -10
-11 0 -20 -4 -20 -10 0 -5 -11 -12 -25 -16 -14 -3 -25 -10 -25 -15 0 -5 -11
-9 -25 -9 -14 0 -25 -4 -25 -10 0 -5 -8 -10 -19 -10 -10 0 -24 -7 -31 -15 -7
-8 -21 -15 -31 -15 -11 0 -19 -4 -19 -10 0 -5 -8 -10 -18 -10 -10 0 -27 -7
-38 -15 -10 -8 -27 -15 -36 -15 -10 0 -18 -4 -18 -10 0 -5 -11 -10 -25 -10
-14 0 -25 -4 -25 -10 0 -5 -11 -12 -25 -16 -14 -3 -25 -10 -25 -15 0 -5 -9 -9
-20 -9 -11 0 -20 -4 -20 -10 0 -5 -11 -10 -24 -10 -13 0 -26 -7 -30 -15 -3 -8
-15 -15 -26 -15 -11 0 -20 -4 -20 -10 0 -5 -11 -10 -25 -10 -14 0 -25 -3 -25
-7 0 -11 -58 -43 -76 -43 -8 0 -14 -4 -14 -10 0 -5 -11 -10 -24 -10 -13 0 -26
-7 -30 -15 -3 -8 -15 -15 -26 -15 -11 0 -20 -4 -20 -10 0 -5 -11 -10 -24 -10
-13 0 -26 -4 -28 -9 -7 -17 -46 -22 -61 -6 -9 8 -25 15 -36 15 -12 0 -21 4
-21 9 0 5 -16 12 -35 15 -19 4 -35 11 -35 16 0 6 -9 10 -20 10 -11 0 -20 5
-20 10 0 6 -8 10 -18 10 -9 0 -29 11 -44 25 -15 14 -36 25 -48 25 -11 0 -20 5
-20 10 0 6 -6 10 -14 10 -17 0 -80 32 -84 43 -2 4 -12 7 -23 7 -10 0 -19 4
-19 9 0 5 -11 12 -25 15 -14 4 -25 11 -25 16 0 6 -11 10 -25 10 -14 0 -25 5
-25 10 0 6 -8 10 -17 10 -10 0 -27 7 -37 15 -11 8 -28 15 -38 15 -10 0 -18 5
-18 10 0 6 -8 10 -19 10 -10 0 -24 7 -31 15 -7 8 -21 15 -31 15 -11 0 -19 5
-19 10 0 6 -11 10 -25 10 -14 0 -25 5 -25 10 0 6 -6 10 -14 10 -7 0 -19 7 -26
15 -7 8 -21 15 -31 15 -11 0 -19 5 -19 10 0 6 -7 10 -15 10 -8 0 -15 5 -15 10
0 6 -6 10 -14 10 -17 0 -80 32 -84 43 -2 4 -10 7 -17 7 -16 0 -79 32 -83 43
-2 4 -12 7 -23 7 -10 0 -19 4 -19 9 0 5 -16 12 -35 15 -19 4 -35 11 -35 16 0
6 -11 10 -25 10 -14 0 -25 5 -25 10 0 6 -6 10 -14 10 -7 0 -19 7 -26 15 -7 8
-21 15 -31 15 -11 0 -19 5 -19 10 0 6 -10 10 -21 10 -12 0 -32 11 -45 25 -13
14 -30 25 -38 25 -9 0 -18 -11 -22 -25z"/>
</g>
</svg>
