<svg width="34" height="25" viewBox="0 0 34 25" fill="none" xmlns="http://www.w3.org/2000/svg">
<path d="M21.6667 16.6667H24.1667C24.5833 16.6667 25 16.25 25 15.8333V7.08333C25 6.66667 24.5833 6.25 24.1667 6.25H21.6667C21.25 6.25 20.8333 6.66667 20.8333 7.08333V15.8333C20.8333 16.25 21.25 16.6667 21.6667 16.6667ZM27.9167 16.6667H30.4167C30.8333 16.6667 31.25 16.25 31.25 15.8333V0.833333C31.25 0.416667 30.8333 0 30.4167 0H27.9167C27.5 0 27.0833 0.416667 27.0833 0.833333V15.8333C27.0833 16.25 27.5 16.6667 27.9167 16.6667ZM9.16667 16.6667H11.6667C12.0833 16.6667 12.5 16.25 12.5 15.8333V11.25C12.5 10.8333 12.0833 10.4167 11.6667 10.4167H9.16667C8.75 10.4167 8.33333 10.8333 8.33333 11.25V15.8333C8.33333 16.25 8.75 16.6667 9.16667 16.6667ZM15.4167 16.6667H17.9167C18.3333 16.6667 18.75 16.25 18.75 15.8333V2.91667C18.75 2.5 18.3333 2.08333 17.9167 2.08333H15.4167C15 2.08333 14.5833 2.5 14.5833 2.91667V15.8333C14.5833 16.25 15 16.6667 15.4167 16.6667ZM32.2917 20.8333H4.16667V1.04167C4.16667 0.466146 3.70052 0 3.125 0H1.04167C0.466146 0 0 0.466146 0 1.04167V22.9167C0 24.0671 0.932943 25 2.08333 25H32.2917C32.8672 25 33.3333 24.5339 33.3333 23.9583V21.875C33.3333 21.2995 32.8672 20.8333 32.2917 20.8333Z" fill="black"/>
</svg>
