<svg width="32" height="25" viewBox="0 0 32 25" fill="none" xmlns="http://www.w3.org/2000/svg">
<path d="M30.4688 20.3125H18.6299C18.5938 21.2798 17.9116 21.875 17.0312 21.875H14.0625C13.1499 21.875 12.4502 21.022 12.4624 20.3125H0.78125C0.351562 20.3125 0 20.6641 0 21.0938V21.875C0 23.5938 1.40625 25 3.125 25H28.125C29.8438 25 31.25 23.5938 31.25 21.875V21.0938C31.25 20.6641 30.8984 20.3125 30.4688 20.3125ZM28.125 2.34375C28.125 1.05469 27.0703 0 25.7812 0H5.46875C4.17969 0 3.125 1.05469 3.125 2.34375V18.75H28.125V2.34375ZM25 15.625H6.25V3.125H25V15.625Z" fill="black"/>
</svg>
