<svg width="45" height="34" viewBox="0 0 45 34" fill="none" xmlns="http://www.w3.org/2000/svg">
<rect x="0.5" y="0.5" width="44" height="33" rx="4.5" fill="white"/>
<path d="M32.0743 22.4555L27.5005 17.8818C26.5982 16.9795 25.2507 16.8037 24.1649 17.3388L20.0012 13.1752V10.7496L15.0017 7L12.502 9.49976L16.2516 14.4993H18.6771L22.8408 18.6629C22.3096 19.7488 22.4814 21.0963 23.3837 21.9985L27.9575 26.5723C28.5277 27.1426 29.4495 27.1426 30.0159 26.5723L32.0743 24.5139C32.6406 23.9437 32.6406 23.0219 32.0743 22.4555ZM25.4577 15.7882C26.5631 15.7882 27.602 16.2178 28.3832 16.999L29.141 17.7568C29.7581 17.4873 30.344 17.1123 30.8517 16.6045C32.3008 15.1555 32.7929 13.1166 32.332 11.2652C32.2461 10.9137 31.8048 10.7926 31.547 11.0504L28.641 13.9564L25.9889 13.515L25.5476 10.8629L28.4535 7.95694C28.7113 7.69915 28.5863 7.25779 28.2309 7.16795C26.3795 6.71097 24.3406 7.20311 22.8955 8.64828C21.7823 9.76145 21.2589 11.2301 21.2863 12.6948L24.493 15.9015C24.8093 15.8273 25.1374 15.7882 25.4577 15.7882ZM21.3995 18.991L19.1849 16.7764L13.2324 22.7328C12.2559 23.7093 12.2559 25.2912 13.2324 26.2676C14.2088 27.2441 15.7907 27.2441 16.7672 26.2676L21.5948 21.44C21.298 20.6627 21.2081 19.8152 21.3995 18.991ZM15.0017 25.4357C14.4861 25.4357 14.0643 25.0139 14.0643 24.4983C14.0643 23.9788 14.4822 23.5609 15.0017 23.5609C15.5212 23.5609 15.9391 23.9788 15.9391 24.4983C15.9391 25.0139 15.5212 25.4357 15.0017 25.4357Z" fill="#B3B3B3"/>
<rect x="0.5" y="0.5" width="44" height="33" rx="4.5" stroke="#D9D9D9"/>
</svg>
