<svg width="29" height="25" viewBox="0 0 29 25" fill="none" xmlns="http://www.w3.org/2000/svg">
<path d="M25.3634 14.0943C23.3361 14.0943 22.4581 15.6369 21.3567 15.6369C18.4282 15.6369 21.0938 7.03126 21.0938 7.03126C21.0938 7.03126 11.5094 10.9375 11.5094 6.87027C11.5094 5.1209 13.2813 4.61197 13.2813 2.67178C13.2813 0.938282 11.9085 0 10.2802 0C8.58814 0 7.0397 0.922413 7.0397 2.75127C7.0397 4.771 8.5881 5.64566 8.5881 6.74298C8.58814 10.1425 0 8.14249 0 8.14249V24.4138C0 24.4138 8.72242 26.4181 8.72242 23.0143C8.72242 21.917 6.76929 21.056 6.76929 19.0362C6.76929 17.2073 8.19752 16.285 9.87364 16.285C11.5178 16.285 12.8906 17.2233 12.8906 18.9567C12.8906 20.8969 11.1188 21.4058 11.1188 23.1552C11.1188 26.1241 17.4506 24.4115 19.9679 24.4115C19.9679 24.4115 18.2723 18.5472 21.229 18.5472C22.9849 18.5472 23.4957 20.3125 25.4432 20.3125C27.1832 20.3125 28.125 18.9448 28.125 17.3068C28.125 15.6369 27.1992 14.0943 25.3634 14.0943Z" fill="black"/>
</svg>
