<svg width="32" height="25" viewBox="0 0 32 25" fill="none" xmlns="http://www.w3.org/2000/svg">
<path d="M10.9375 12.5C14.3896 12.5 17.1875 9.70215 17.1875 6.25C17.1875 2.79785 14.3896 0 10.9375 0C7.48535 0 4.6875 2.79785 4.6875 6.25C4.6875 9.70215 7.48535 12.5 10.9375 12.5ZM15.3125 14.0625H14.4971C13.4131 14.5605 12.207 14.8438 10.9375 14.8438C9.66797 14.8438 8.4668 14.5605 7.37793 14.0625H6.5625C2.93945 14.0625 0 17.002 0 20.625V22.6562C0 23.9502 1.0498 25 2.34375 25H19.5312C20.8252 25 21.875 23.9502 21.875 22.6562V20.625C21.875 17.002 18.9355 14.0625 15.3125 14.0625ZM31.084 7.79297L29.7266 6.4209C29.502 6.19141 29.1357 6.19141 28.9062 6.41602L23.7891 11.4941L21.5674 9.25781C21.3428 9.02832 20.9766 9.02832 20.7471 9.25293L19.375 10.6152C19.1455 10.8398 19.1455 11.2061 19.3701 11.4355L23.3594 15.4541C23.584 15.6836 23.9502 15.6836 24.1797 15.459L31.0791 8.61328C31.3037 8.38379 31.3086 8.01758 31.084 7.79297Z" fill="black"/>
</svg>
