<svg width="32" height="28" viewBox="0 0 32 28" fill="none" xmlns="http://www.w3.org/2000/svg">
<path d="M31.7651 21.5732L16.5677 27.6256C16.3884 27.6871 16.1954 27.7188 16.0004 27.7188C15.8053 27.7188 15.6123 27.6871 15.4331 27.6256L0.234922 21.5732C-0.0744402 21.4495 -0.0744402 21.2465 0.234922 21.1221L3.87456 19.6756C4.05407 19.614 4.24733 19.5823 4.44263 19.5823C4.63792 19.5823 4.83118 19.614 5.0107 19.6756L15.4331 23.821C15.6122 23.8829 15.8053 23.9148 16.0004 23.9148C16.1955 23.9148 16.3885 23.8829 16.5677 23.821L26.9901 19.6756C27.1694 19.614 27.3626 19.5823 27.5578 19.5823C27.7529 19.5823 27.9461 19.614 28.1254 19.6756L31.7651 21.1252C32.0783 21.2465 32.0783 21.4495 31.7651 21.5732ZM31.7651 13.1258L28.1254 11.6761C27.9461 11.6145 27.7529 11.5828 27.5578 11.5828C27.3626 11.5828 27.1694 11.6145 26.9901 11.6761L16.5677 15.8265C16.3883 15.8877 16.1954 15.9193 16.0004 15.9193C15.8054 15.9193 15.6124 15.8877 15.4331 15.8265L5.0107 11.6761C4.83118 11.6146 4.63792 11.5828 4.44263 11.5828C4.24733 11.5828 4.05407 11.6146 3.87456 11.6761L0.234922 13.1258C-0.0744402 13.2495 -0.0744402 13.4531 0.234922 13.5781L15.4331 19.6292C15.6123 19.6907 15.8053 19.7224 16.0004 19.7224C16.1954 19.7224 16.3884 19.6907 16.5677 19.6292L31.7651 13.5781C32.0783 13.4531 32.0783 13.2501 31.7651 13.1258ZM0.234922 6.08964L15.4323 11.6761C15.797 11.7906 16.2022 11.7906 16.5669 11.6761L31.7651 6.08964C32.0744 5.97456 32.0744 5.78709 31.7651 5.67262L16.5669 0.0867857C16.2025 -0.0289286 15.7967 -0.0289286 15.4323 0.0867857L0.234922 5.67262C-0.0783072 5.78709 -0.0783072 5.97456 0.234922 6.08964Z" fill="#0354EC"/>
<path d="M31.7651 21.5732L16.5677 27.6256C16.3884 27.6871 16.1954 27.7188 16.0004 27.7188C15.8053 27.7188 15.6123 27.6871 15.4331 27.6256L0.234922 21.5732C-0.0744402 21.4495 -0.0744402 21.2465 0.234922 21.1221L3.87456 19.6756C4.05407 19.614 4.24733 19.5823 4.44263 19.5823C4.63792 19.5823 4.83118 19.614 5.0107 19.6756L15.4331 23.821C15.6122 23.8829 15.8053 23.9148 16.0004 23.9148C16.1955 23.9148 16.3885 23.8829 16.5677 23.821L26.9901 19.6756C27.1694 19.614 27.3626 19.5823 27.5578 19.5823C27.7529 19.5823 27.9461 19.614 28.1254 19.6756L31.7651 21.1252C32.0783 21.2465 32.0783 21.4495 31.7651 21.5732ZM31.7651 13.1258L28.1254 11.6761C27.9461 11.6145 27.7529 11.5828 27.5578 11.5828C27.3626 11.5828 27.1694 11.6145 26.9901 11.6761L16.5677 15.8265C16.3883 15.8877 16.1954 15.9193 16.0004 15.9193C15.8054 15.9193 15.6124 15.8877 15.4331 15.8265L5.0107 11.6761C4.83118 11.6146 4.63792 11.5828 4.44263 11.5828C4.24733 11.5828 4.05407 11.6146 3.87456 11.6761L0.234922 13.1258C-0.0744402 13.2495 -0.0744402 13.4531 0.234922 13.5781L15.4331 19.6292C15.6123 19.6907 15.8053 19.7224 16.0004 19.7224C16.1954 19.7224 16.3884 19.6907 16.5677 19.6292L31.7651 13.5781C32.0783 13.4531 32.0783 13.2501 31.7651 13.1258ZM0.234922 6.08964L15.4323 11.6761C15.797 11.7906 16.2022 11.7906 16.5669 11.6761L31.7651 6.08964C32.0744 5.97456 32.0744 5.78709 31.7651 5.67262L16.5669 0.0867857C16.2025 -0.0289286 15.7967 -0.0289286 15.4323 0.0867857L0.234922 5.67262C-0.0783072 5.78709 -0.0783072 5.97456 0.234922 6.08964Z" fill="black"/>
</svg>
