<svg width="32" height="25" viewBox="0 0 32 25" fill="none" xmlns="http://www.w3.org/2000/svg">
<path d="M0 12.5V18.75C0 19.6143 0.698242 20.3125 1.5625 20.3125H3.125V10.9375H1.5625C0.698242 10.9375 0 11.6357 0 12.5ZM22.6562 4.6875H17.1875V1.5625C17.1875 0.698242 16.4893 0 15.625 0C14.7607 0 14.0625 0.698242 14.0625 1.5625V4.6875H8.59375C6.43555 4.6875 4.6875 6.43555 4.6875 8.59375V21.875C4.6875 23.5986 6.08887 25 7.8125 25H23.4375C25.1611 25 26.5625 23.5986 26.5625 21.875V8.59375C26.5625 6.43555 24.8145 4.6875 22.6562 4.6875ZM12.5 20.3125H9.375V18.75H12.5V20.3125ZM10.9375 14.4531C9.8584 14.4531 8.98438 13.5791 8.98438 12.5C8.98438 11.4209 9.8584 10.5469 10.9375 10.5469C12.0166 10.5469 12.8906 11.4209 12.8906 12.5C12.8906 13.5791 12.0166 14.4531 10.9375 14.4531ZM17.1875 20.3125H14.0625V18.75H17.1875V20.3125ZM21.875 20.3125H18.75V18.75H21.875V20.3125ZM20.3125 14.4531C19.2334 14.4531 18.3594 13.5791 18.3594 12.5C18.3594 11.4209 19.2334 10.5469 20.3125 10.5469C21.3916 10.5469 22.2656 11.4209 22.2656 12.5C22.2656 13.5791 21.3916 14.4531 20.3125 14.4531ZM29.6875 10.9375H28.125V20.3125H29.6875C30.5518 20.3125 31.25 19.6143 31.25 18.75V12.5C31.25 11.6357 30.5518 10.9375 29.6875 10.9375Z" fill="black"/>
</svg>
