<svg width="45" height="36" viewBox="0 0 45 36" fill="none" xmlns="http://www.w3.org/2000/svg">
<rect x="0.5" y="0.625" width="44" height="34.875" rx="4.5" fill="white"/>
<path d="M33.4375 13.375H11.5625C10.6996 13.375 10 12.6754 10 11.8125V8.6875C10 7.82456 10.6996 7.125 11.5625 7.125H33.4375C34.3004 7.125 35 7.82456 35 8.6875V11.8125C35 12.6754 34.3004 13.375 33.4375 13.375ZM31.0938 9.07812C30.4465 9.07812 29.9219 9.60278 29.9219 10.25C29.9219 10.8972 30.4465 11.4219 31.0938 11.4219C31.741 11.4219 32.2656 10.8972 32.2656 10.25C32.2656 9.60278 31.741 9.07812 31.0938 9.07812ZM27.9688 9.07812C27.3215 9.07812 26.7969 9.60278 26.7969 10.25C26.7969 10.8972 27.3215 11.4219 27.9688 11.4219C28.616 11.4219 29.1406 10.8972 29.1406 10.25C29.1406 9.60278 28.616 9.07812 27.9688 9.07812ZM33.4375 21.1875H11.5625C10.6996 21.1875 10 20.4879 10 19.625V16.5C10 15.6371 10.6996 14.9375 11.5625 14.9375H33.4375C34.3004 14.9375 35 15.6371 35 16.5V19.625C35 20.4879 34.3004 21.1875 33.4375 21.1875ZM31.0938 16.8906C30.4465 16.8906 29.9219 17.4153 29.9219 18.0625C29.9219 18.7097 30.4465 19.2344 31.0938 19.2344C31.741 19.2344 32.2656 18.7097 32.2656 18.0625C32.2656 17.4153 31.741 16.8906 31.0938 16.8906ZM27.9688 16.8906C27.3215 16.8906 26.7969 17.4153 26.7969 18.0625C26.7969 18.7097 27.3215 19.2344 27.9688 19.2344C28.616 19.2344 29.1406 18.7097 29.1406 18.0625C29.1406 17.4153 28.616 16.8906 27.9688 16.8906ZM33.4375 29H11.5625C10.6996 29 10 28.3004 10 27.4375V24.3125C10 23.4496 10.6996 22.75 11.5625 22.75H33.4375C34.3004 22.75 35 23.4496 35 24.3125V27.4375C35 28.3004 34.3004 29 33.4375 29ZM31.0938 24.7031C30.4465 24.7031 29.9219 25.2278 29.9219 25.875C29.9219 26.5222 30.4465 27.0469 31.0938 27.0469C31.741 27.0469 32.2656 26.5222 32.2656 25.875C32.2656 25.2278 31.741 24.7031 31.0938 24.7031ZM27.9688 24.7031C27.3215 24.7031 26.7969 25.2278 26.7969 25.875C26.7969 26.5222 27.3215 27.0469 27.9688 27.0469C28.616 27.0469 29.1406 26.5222 29.1406 25.875C29.1406 25.2278 28.616 24.7031 27.9688 24.7031Z" fill="#B3B3B3"/>
<rect x="0.5" y="0.625" width="44" height="34.875" rx="4.5" stroke="#D9D9D9"/>
</svg>
