<svg width="80" height="77" viewBox="0 0 80 77" fill="none" xmlns="http://www.w3.org/2000/svg">
<ellipse cx="40" cy="38.5" rx="40" ry="38.5" fill="#171717"/>
<path d="M29.7603 53V48.5682L40.1154 38.9801C40.9961 38.1278 41.7347 37.3608 42.3313 36.679C42.9374 35.9972 43.3967 35.3295 43.7092 34.6761C44.0217 34.0133 44.1779 33.2983 44.1779 32.5312C44.1779 31.679 43.9838 30.9451 43.5955 30.3295C43.2073 29.7045 42.677 29.2263 42.0046 28.8949C41.3323 28.554 40.57 28.3835 39.7177 28.3835C38.8275 28.3835 38.051 28.5634 37.3881 28.9233C36.7253 29.2831 36.2139 29.7992 35.854 30.4716C35.4942 31.1439 35.3143 31.9441 35.3143 32.8722H29.4762C29.4762 30.9687 29.9071 29.3163 30.7688 27.9148C31.6306 26.5133 32.8379 25.429 34.391 24.6619C35.944 23.8949 37.7338 23.5114 39.7603 23.5114C41.8436 23.5114 43.6571 23.8807 45.2006 24.6193C46.7537 25.3485 47.9611 26.3617 48.8228 27.6591C49.6845 28.9564 50.1154 30.4432 50.1154 32.1193C50.1154 33.2178 49.8976 34.3021 49.462 35.3722C49.0359 36.4422 48.2736 37.6307 47.1751 38.9375C46.0766 40.2348 44.5283 41.7926 42.5302 43.6108L38.283 47.7727V47.9716H50.4989V53H29.7603Z" fill="white"/>
</svg>
