<svg width="80" height="77" viewBox="0 0 80 77" fill="none" xmlns="http://www.w3.org/2000/svg">
<ellipse cx="40" cy="38.5" rx="40" ry="38.5" fill="#171717"/>
<path d="M39.9272 53.3977C37.806 53.3977 35.9168 53.0331 34.2596 52.304C32.6119 51.5653 31.3098 50.5521 30.3533 49.2642C29.4064 47.9669 28.9187 46.4706 28.8903 44.7756H35.0835C35.1213 45.4858 35.3533 46.1108 35.7795 46.6506C36.2151 47.1809 36.7927 47.5928 37.5124 47.8864C38.2321 48.1799 39.0418 48.3267 39.9414 48.3267C40.8789 48.3267 41.7075 48.161 42.4272 47.8295C43.1469 47.4981 43.7103 47.0388 44.1175 46.4517C44.5247 45.8646 44.7283 45.1875 44.7283 44.4205C44.7283 43.6439 44.5105 42.9574 44.0749 42.3608C43.6488 41.7547 43.0333 41.2812 42.2283 40.9403C41.4329 40.5994 40.4859 40.429 39.3874 40.429H36.6744V35.9119H39.3874C40.3155 35.9119 41.1346 35.7509 41.8448 35.429C42.5645 35.107 43.1232 34.6619 43.521 34.0938C43.9187 33.5161 44.1175 32.8438 44.1175 32.0767C44.1175 31.3475 43.9424 30.7083 43.592 30.1591C43.2511 29.6004 42.7681 29.1648 42.1431 28.8523C41.5276 28.5398 40.8079 28.3835 39.984 28.3835C39.1507 28.3835 38.3884 28.535 37.6971 28.8381C37.0058 29.1316 36.4518 29.553 36.0352 30.1023C35.6185 30.6515 35.396 31.2955 35.3675 32.0341H29.4727C29.5011 30.358 29.9793 28.8807 30.9073 27.6023C31.8353 26.3239 33.0853 25.3248 34.6573 24.6051C36.2388 23.8759 38.0238 23.5114 40.0124 23.5114C42.02 23.5114 43.7766 23.8759 45.2823 24.6051C46.788 25.3343 47.9575 26.3191 48.7908 27.5597C49.6336 28.7907 50.0503 30.1733 50.0408 31.7074C50.0503 33.3362 49.5437 34.6951 48.521 35.7841C47.5077 36.8731 46.1867 37.5644 44.5579 37.858V38.0852C46.698 38.3598 48.3268 39.1032 49.4442 40.3153C50.5711 41.518 51.1299 43.0237 51.1204 44.8324C51.1299 46.4896 50.6516 47.9621 49.6857 49.25C48.7293 50.5379 47.4083 51.5511 45.7227 52.2898C44.0371 53.0284 42.1052 53.3977 39.9272 53.3977Z" fill="white"/>
</svg>
