<svg width="139" height="94" viewBox="0 0 139 94" fill="#000" xmlns="http://www.w3.org/2000/svg">
<path d="M16.5724 40.6136L11.2457 73H0.627841L9.71875 18.4545H19.9105L18.419 27.3324H19.0938C20.822 24.4205 23.1776 22.1004 26.1605 20.3722C29.1671 18.6203 32.7183 17.7443 36.8139 17.7443C40.5308 17.7443 43.6558 18.5256 46.1889 20.0881C48.7221 21.6269 50.4976 23.9233 51.5156 26.9773C52.5573 30.0312 52.7112 33.8073 51.9773 38.3054L42.7443 93.4545H32.1264L41.1108 39.5838C41.75 35.6302 41.2292 32.5407 39.5483 30.3153C37.8911 28.0663 35.2514 26.9418 31.6293 26.9418C29.1908 26.9418 26.9299 27.4744 24.8466 28.5398C22.7633 29.6051 20.9877 31.1676 19.5199 33.2273C18.0758 35.2633 17.0933 37.7254 16.5724 40.6136ZM83.277 40.6847V42.9574H56.1463V40.6847H83.277ZM90.136 0.272725L111.62 33.1918H112.011L133.495 0.272725H138.858L114.958 36.6364L138.858 73H133.495L112.011 40.294H111.62L90.136 73H84.7738L108.886 36.6364L84.7738 0.272725H90.136Z" fill="#000"/>
</svg>
